<?xml version="1.0" encoding="UTF-8"?>
<svg id="Layer_2" data-name="Layer 2" xmlns="http://www.w3.org/2000/svg" viewBox="0 0 145.09 159.3">
  <defs>
    <style>
      .cls-1 {
        fill: #000;
        stroke-width: 0px;
      }
    </style>
  </defs>
  <g id="Layer_2-2" data-name="Layer 2">
    <path class="cls-1" d="M24.29,108.16c-9.25-6.86-12.94-7.54-16.59-3.04-1.94-7.2-3.66-10.26-7.71-13.77,4.05-5.36,5.45-8.56,6.3-14.64,2.03,3.86,5.26,2.15,14.52-7.7-5.21,9.08-6.36,12.99-5.2,17.57-1.16,7.03.77,11.83,8.68,21.58ZM11.1,102.51c-2.87-8.03-3.74-11-3.91-13.34.16-1.22.35-3.44.87-9.98-.13,3.89-2.15,5.26-3.04,2.06.54,5.13.38,6.93-.76,8.13,1.14,2.71,2.08,5.41,4.23,12.15-.27-3.56,1.46-2.91,2.6.98q-1.14-3.89,0,0ZM16.07,103.31c-3.02-9.66-3.95-13.79-4.22-18.54.27-.3.53-2.06,1.18-7.92-.13,4.41-1.72,4.84-2.39.65.04,6.41-.27,8.77-1.4,10.63,1.14,2.72,1.98,6.1,3.79,15.18-.13-4.41,1.9-4.41,3.04,0ZM145.09,87.72c-23.28,2.66-23.79,7.36-2.28,21.15-24.06-3.38-26.6-.2-11.39,14.31-19.64-14.51-21.63-15.55-9-4.66-19.48-15.51-26.67-17.63-32.32-9.55-13.73-11.22-21.42-11.94-34.6-3.25,4.8-8.69,3.91-7.22-4.01,6.62,7.92-9.88,8.31-8.45,1.73,6.46,8.11-11.19,8.5-9.74,1.73,6.55,6.76-14.17,7.38-12.99,2.76,5.31,7.08-15.7,7.69-14.66,2.78,4.66,4.92-18.36,4.85-18.07-.27,1.3,4.88-18.61,4.83-18.32-.27,1.3,5.1-18.75,5.67-17.79,2.55,4.34,5.39-19.62,5.95-18.53,2.55,4.88,3.4-22.07,3.23-21.51-.81,2.5,3.32-22.66,3.13-22.13-.81,2.39,3.94-23.55,4.24-22.89,1.36,2.98,4.08-24.38,4.39-23.86,1.36,2.33,3.04-25.03,1.88-24.6-5.2,1.95-.35-26.55-3.93-28.05-16.17-6.72,8.91-26.14,7.67-29.97-5.52-17.24,9.77-29.45,5.95-34.9-17.25-24.51,17.51-10.39,17.19-10.36-1.4.17,17.82-10.38,17.53-10.34-1.3.16,12.47-10.5,9.4-16.14-13.88-25.38,23.28-8.5,26.44-13.15,14.2-20.93,21.82,3.73,26.72,1.83,22.01-8.57,18.06,4.9,25.56.47,33.73-19.95,7.63,8.9,13,4.15,24.2-21.36-6.8,14.91-4.17,11.59,11.81-14.96-7.31,26.55-2.76,31.75,20.49,23.42-15.88,25.78-13.63,33.18,10.1,33.29-20.83,14.63-20.13,21.53,3.15,31.02q-23.28-2.69,0-.01ZM116.59,114.01c-16.86-21.24-20.25-29.41-15.3-36.76-9.78-11.64-10.93-20.43-5.2-39.59-5.73,10.67-4.72,2.43,1.52-12.36-9.51,18.98-13.98,22.91-20.06,17.68-4.62,11.93-9.7,14.99-22.89,13.77,2.1,8.02-.88,12.33-13.44,19.41,12.56,2.12,13.34,5.83,3.47,16.7,13.33-3.88,16.18-1.64,12.8,10.09,7.43-11.05,10.11-10.93,12.03.54,15.08-10.8,25.55-8.46,47.08,10.52q-12.56-14.79,0,0ZM111.72,81.73c-2.66-7.93-3.53-12.72-3.91-21.58-3.33-.64-6.01-4.16-12.05-15.83,4.55,26.81,7.38,39.68,12.81,57.91-.22-13.89.48-18.45,3.14-20.49q-2.66-2.82,0,0Z"/>
  </g>
</svg>