<svg xmlns="http://www.w3.org/2000/svg" viewBox="0 0 252.47 253.38"><g id="Layer_2" data-name="Layer 2"><g id="Layer_1-2" data-name="Layer 1"><path d="M126.5.09a127.58,127.58,0,0,1,28.73,3.29,142.59,142.59,0,0,1,18,5.7A108.18,108.18,0,0,1,194,19.81a119.07,119.07,0,0,1,19,15c3.79,3.75,7.47,7.62,11.17,11.47a25,25,0,0,1,3.79,6.05c3.69,7.06,8.27,13.57,12.43,20.34a30.57,30.57,0,0,1,4.05,9.48c1.48,6.59,3.33,13.11,5,19.67a88.72,88.72,0,0,1,1.7,10.77c.17,1.4.41,2.8.7,4.19,1.31,6.29.49,12.53-.25,18.8-.77,6.43-1.38,12.88-2,19.33a17,17,0,0,1-1.36,4.38c-2.62,6.79-5.15,13.62-8,20.33a86.92,86.92,0,0,1-4.68,8.7c-2.71,4.86-5.52,9.67-8.15,14.58-1.45,2.7-3.88,4.43-6,6.49-4.86,4.77-9.75,9.53-14.82,14.08-4.06,3.64-8.31,7.09-12.66,10.37-3,2.22-6.6,3.3-9.83,5.09-10.24,5.67-21.31,9-32.57,11.91-6.38,1.67-12.8,2-19.24,2.36a114.62,114.62,0,0,1-31.68-2.35,140.5,140.5,0,0,1-27.85-9.05c-7.1-3.2-13.51-7.48-19.89-11.85a143.74,143.74,0,0,1-13.22-10.48c-3.19-2.76-5.57-6.29-8.29-9.49Q25.6,203.18,20,196.3c-2.15-2.64-3-6-4.46-9C11.6,179,8,170.51,4.45,162A24.17,24.17,0,0,1,2.63,155C1.85,146.87.8,138.8.12,130.7a97.25,97.25,0,0,1,.12-10.38c.08-3.58.16-7.16.31-10.74a27,27,0,0,1,1.35-5.79c1.72-6.48,3.49-13,5.18-19.45a29,29,0,0,1,2.78-6.93C12.31,73,14.65,68.5,17,64c3.17-6.21,7.89-11.4,11.44-17.33C32.18,40.34,38.29,36.6,43.68,32s10.69-8.81,16-13.24a23.9,23.9,0,0,1,5.55-3c6.59-3.07,13.14-6.27,19.89-9C88.84,5.37,93,5,96.81,3.74c7.51-2.42,15.32-2.68,23-3.61A56.71,56.71,0,0,1,126.5.09Zm45.4,228c1.47,1.17,2.28.95,3.14-.94-1,.63-2,1.3-3.18,1,.13-.89-.66-1.22-1.07-1.8s-1.08-.77-.54-1.55c.22-.31.23-.68-.19-.82s-.45.36-.63.6a1,1,0,0,0,.18,1.36C170.35,226.63,171.13,227.34,171.9,228.05Zm-94.52-88.3-.4-.28c-.71.56-1.44,1.09-2.13,1.68-.25.2-.63.73-.47.8,2.08.91-.75,1.15-.23,1.81,2.22-.58,3.07-.2,2.9,1.3a8.14,8.14,0,0,0-1.49.25c-.38.14-.56.92-.36.9.81-.07,1.68.65,2.31.14s-.49-.8-.5-1.32c.88-.18,1.14-1.89,2.5-.79-.18-1.17-1-1.1-1.64-1.2.06-.82,1.58-1.19.54-2.21.41-.09,1,0,1.1-.51,0-.25-.22-.6-.42-.85-.39-.49-.74-.21-1.11.1A1.45,1.45,0,0,1,77.38,139.75Zm24,38.89c-.75,2.58-.63,2.9,1.38,4.09.77-1.82-.65-2.87-1.51-4.14.32,0,.82.15.78-.28a.93.93,0,0,0-1-.87.83.83,0,0,0-.71.81C100.44,178.89,101,178.68,101.41,178.64Zm-8,.2c.32,2.12,1.85,1.5,3.17,1.39l-.4-1.57a.85.85,0,0,0-.08-.87C95,176.11,93.48,177,92,177c-2.54,0-1.09,2.67-2.59,3.27a16.7,16.7,0,0,1,4.08-1.35ZM185.61,229c.39-.15.73-.32.49-.84a4,4,0,0,1,.17-2.88c.18,2.17,1.46.44,2.1.46.92,0,.26-.65.07-1a1.7,1.7,0,0,0,1.89.26c.58-.22,1,.22,1.19.71.24.64-.51.61-.76.94-.35.48-.82-.43-1.18.08,0,.84,1,1.13,1.17,1.73-.34.7-.77-.31-1.06.3.66,1.27,1.39.62,2,0a2.68,2.68,0,0,1,2.7-1.12l-3-3.31c1.3.17,1.3.17,1.09-1.15l1.06,1c.93.87,1,.18,1-.56l1.79-.68c.13.52.54.65,1,.69-.06.75.85,1.3.11,2.46a10.77,10.77,0,0,0,1.58-1.07c.31-.29,1.12-.47.6-1.12-.35-.44-.81-1-1.55-.51a3.47,3.47,0,0,1-.78.29,2.77,2.77,0,0,1,3.58-1.2c1,.4.57,1.1.26,1.8,1.39-.32,1.7-1,1-2.07.83-.06,1.24.88,2,.48-.29-.59-1.07-1-.67-1.78.53-.09.87.27,1.23.51a1.08,1.08,0,0,0,1.64-.17,2.53,2.53,0,0,0,.61-2.22c-.16-.57-.63-.33-.92,0s-.42.7-.73.92a1,1,0,0,1-1.38-.22c-.32-.34-.38-.79.11-1,2-.81.32-1.29-.22-1.53a3.38,3.38,0,0,1-2.12-2.67.6.6,0,0,1,.34-.71c.34-.14.54.09.62.38.38,1.49,1.15,1.27,2.11.54.32-.24.81-.57,1,.12.08.24-.87.92.26.68.49-.1,1.25-.28.89-1.27a2.43,2.43,0,0,0-1.71-1.53c-2.07-.56-2.26-2.23-2.54-4-.88.6-1.28,1.92-2.61,1.66-.39-.07-.86-.32-.84.36a.79.79,0,0,0,.8.75,6.82,6.82,0,0,0,1.32-.25.65.65,0,0,1,.31,1.27,5.23,5.23,0,0,1-1.18.15c-1,.05-1.88.17-.76,1.4.22.25.44.62,0,.84s-.64-.09-.86-.38a3.57,3.57,0,0,1-.63-3c-.77.62-2,1.32-1.61,2.12.75,1.36,1.59,3.06,3.72,2.85.47,0,1.19-.08,1.12.67-.06.6-.68.43-1.13.41s-1.22-.29-1.37.29c-.36,1.36-.95.78-1.52.28s-1.25-.19-1.66.19.27.73.4,1.11.81.52.56,1.09c-.83.59-1.22-1.73-2.15-.29-.41.09-.72-.53-1.2-.18.49,1.18,2.6,1.83,1.16,3.59a6,6,0,0,1-2.54-2.28c.54-.41.85.44,1.31.06-1.23-1.81-3.3-3.77-4.23-4-.08.43.5.5.49.81,0,1,2.57,1.23.88,2.77.52.33-.11,1,.41,1.33.21.13.82-.22.54.41a1.49,1.49,0,0,1-.76.57c-.76-.81-2.26-.5-2.69-1.85-.3-.92-.84-1.29-1.67-.29a2.07,2.07,0,0,0-.4,2.21,2.52,2.52,0,0,0,2.43,1.2,4.08,4.08,0,0,1-2,.82A.77.77,0,0,0,185,226c0,1.6-.86,2.65-2.18,3.73a2.07,2.07,0,0,0,1.78-.81c.42-.36.78-.45,1.06.15a6.66,6.66,0,0,0-3.13,3.32C183.73,231.42,185,230.56,185.61,229ZM111.19,208.9a1.39,1.39,0,0,0,.59,1c.47.27.83,1.21,1.45.67a1.61,1.61,0,0,0,.48-2.14c-.56-.82-1.06,0-1.58.22-.32.12-.65.2-1,.29a3,3,0,0,1-.37-3.38c.49-1.31-.44-1.12-1-1.39a9,9,0,0,1-.26,3.42C109.28,209.5,109.33,209.54,111.19,208.9Zm-10.57-39.61c1.68.66,1.77,1.3.34,3a2.69,2.69,0,0,1,.71-.05c.89.26,1.62.75,1.31-1a3.49,3.49,0,0,1,.14-2.6c-.69-.12-1.13.45-1.75,0s-.63.27-.71.68c-2.66,1-2.66,1-4,.5.93.14-.9,1.18.77,1.51C99.51,171.75,99.91,170.51,100.62,169.29Zm-28.35-8.18c-.4,0-.83,0-1.08-.33-.8-1.14-1.86-1.12-3.29-.72,1.47.61,1.42,2.58,3.09,2.87.19-.66-1-.77-.38-1.33.46-.4.74.27,1.1.47s.46.82,1.08.69c0-.64-.68-1-.56-1.69,2.36-.18.69-2.17,1.45-3.07C72.39,158.68,73.16,160.26,72.27,161.11Zm20.38,9.55c.72-.77.72-1.59-.16-2.12-.67-.4-1.15.37-1.44.83-.47.73.06,1.24.68,1.62-1.37.47-2,1.68-2.73,2.76-2.62-.66-.43-2.2-.52-3.65-.63.72-1,1.24-1.49,1.68s-1.3.05-1.94.11c-.21,0-.42.33-.58.55,0,.06.11.39.14.38,1.13-.21,1,.69,1,1.28,0,1.21-1.25-.19-1.46.66,3.71,1.79,3.71,1.79,4.58,1.07-.2-.44-.65.14-.89-.23.27-.68,1-1.1,1.08-1.89,1.81.5,1.82.5,2.39-1.2.07-.2.16-.25.34-.23,1.64.1,2.07-1.39,3.36-2.38A4,4,0,0,0,92.65,170.66Zm38,35,.75.75c.76.65,1.09,1.37.17,2.11-.71.56-.66,1.34-.62,2.25a2.09,2.09,0,0,1-.88-1.27c-.05-.29.19-.78-.4-.68-.4.07-.79.3-.58.83.44,1.14-.1,2.48.74,3.53.2.24.27.54,0,.74-1.13.74-.17,1.59-.1,2.38,0,.24.61.61.23.81-2,1.09.24,1.43.34,2.14-.76,0-.73,0-1,1.49-.06.36-.05.91.19.72.77-.59,1.89.14,2.52-.84a15.24,15.24,0,0,1,1.66-1.84c.94.59.33,2.08,1.33,2.31a5.28,5.28,0,0,0,3-.11c1.1-.44,2.64.27,3.34-1.3.48-1.08,1.15-2.1,2.6-1.11,0-.23.06-.3,0-.34a1.06,1.06,0,0,1,.27-1.73c1.12-.69.22.62.67.75.84.24,1.13-.16,1.35-.85s-.42-1.13-.27-1.78c1.52.78,1.68,1,1.66,2.11,0,1.27-.79,1.32-1.75,1.16-.24,0-.51.3-.37.42.88.85-.22,1.46-.2,2,.07,1.5,1.48-.78,2,.43l.29-.15c0-.46-.49-.94.08-1.54a2.5,2.5,0,0,0,3.57,1.29c-.17-.58-.89-.89-.84-1.58a3.33,3.33,0,0,0-.64-1.73c-.13-.27-.18-.62.12-.76a3.07,3.07,0,0,1,2.58.35c.79.38.29,1-.13,1.51a.92.92,0,0,0-.11,1.13c1-.17,1.19-1.59,2.34-1.48-.36.78-1.33,1.28-1.09,2.37.4-.72,1.15-1,1.66-1.48.24-.24.48-.55.16-.88s-.52-.11-.77,0c1-1.67,1-1.67-1.44-2.83,2.1.25,2-1,2-2.1,0-.22-.12-.45-.11-.67.15-3.25.16-3.25-3.06-3.2-.07,0-.14-.16-.26-.31.95-1.32,1.64-3,3.91-2.57a2.12,2.12,0,0,0-.93-.85c-1.37-.46-1.38-.43-1.2-1.83a12.75,12.75,0,0,1,1.26.8c.23.18.41.42.72.22s.26-.47.26-.76c0-.91-.37-1.73-.32-2.72s-1.58.24-2.4-.24a1.65,1.65,0,0,1-.26-.23c.28-.61.58-.75,1.32-.55.41.11,1.79.28,1.62-.38-.39-1.45.35-2.66.34-4,0-.56.26-1.15-.42-1.48a1.37,1.37,0,0,0-1.69.38c-.28.28-.4.62-.95.37a3.52,3.52,0,0,0-3.27.44c-.28.15-.43.58-.85.46-.86-.26-.59-.2-.84.66-.3,1,.7,2.45-.92,3.18.08-1.26-.27-2-1.59-1.56-.37.11-.7.24-.64-.35.14-1.39-.8.08-1.21-.45s-.46.15-.53.56c-.3,1.93-1.12,2.29-2.67,1.23,1.31-.09,2.68-1.64,2.2-2.79-.35-.85-1.59-.26-2.13-.13a10,10,0,0,1-2.64.12c-1.67-.07-3.17,1.23-4.86.45a.5.5,0,0,0-.67.36c-.06.35.22.46.5.56.83.29,1.74.53,1.17,1.75l-.11.13c-.81.25-1.39-.25-2-.59a1.27,1.27,0,0,0-1.66.36c-.38.39-.72.87-.33,1.32.67.78.59,1.8,1,2.64-1.53-.15-1.7.18-1.57,3C129.9,206.25,130.07,205.48,130.67,205.68ZM81.79,148.51c.19.35,0,.61-.11.94-1,2.32-.85,2.78,1.3,3.52a1.46,1.46,0,0,1,0-2.5c.84-.81-.63-1.43,0-2.12-.47-.35-.79.17-1.19.21a1.3,1.3,0,0,0,0-.34c-.46-1.45-.46-1.45.94-1.74.26,0,.43-.31.34-.49-.4-.75.44-1.31.36-2.22-1.07.72-1.94,1.59-3.39.9.19.48.25.68.34.87a1,1,0,0,1-.14,1.26c-.56.47-.56-.25-.8-.47a.42.42,0,0,0-.6,0,.67.67,0,0,0-.18.76A2.26,2.26,0,0,0,81.79,148.51ZM81,12.59a7.89,7.89,0,0,0-5.42,4.47c.94.38,1-1.33,1.93-.84s1.11,0,1.58-.41c.67-.64-.36-.92-.28-1.43,2.13.16,2.86-.42,2.23-1.76,1.21-.27,2.74.54,3.8-1.31a4.71,4.71,0,0,1-2.45.46C81.88,11.77,81,11.64,81,12.59Zm19.19,174.18c.8-.57,1.47-1.63,2.67-.51.23-.77-.55-1.27,0-2,.33-.43-.22-.77-.9-.39-.91.5-1.84,1.46-3,.26-.62,1.49,1,1.7,1.21,2.64s.84,1.86,0,2.86c-.34.38-.06.76.53.57a.58.58,0,0,1,.81.39c.22.62-.39.54-.68.73s-.55.21-.43.7c.81.22,1.94.34,2.23-.44.44-1.23-.19-2.67.27-4C101.85,187.69,101.28,186.23,100.14,186.77Zm-47.7-137c.5.11.89.26.57.91-.13.26-.06.72.29.54,1.49-.78,1.61.11,1.4,1.15-.26,1.3,2-.21,1.31,1.5a13.41,13.41,0,0,0,3.25-3.43,2.26,2.26,0,0,1-2.87-.28c-.44-.34-1.15-.84-1.49-.7-.81.35-1.89-1.37-2.42.35-1,.44-1.86-.41-3-.49a2.75,2.75,0,0,0,2,1.61C52.12,51,52.33,50.32,52.44,49.75Zm-5.3,37.14c-.68.57-.28,1,.22,1.34a11.27,11.27,0,0,1,.8,1.49c.2.55.22,1.32-.45,1.42s-.35-.65-.41-1c-.16-1-1.21-1.09-1.8-1.64,0,0-.35.09-.39.19a2.1,2.1,0,0,0,.5,2c.06.09.14.17.21.26.29.36,1.06.72.45,1.17s-.84-.38-1.13-.76a3.12,3.12,0,0,0-2.07-1.6,26.89,26.89,0,0,0,3.49,4c.93.84,1.39.53,2-.25s.52-1.81,1.59-2.33c-1.12,2,.61,3.75,0,5.81,1.35-.51,2.7-.67,1.93-2.53-.14-.35.1-.89.26-1.3a.61.61,0,0,1,.83-.37c.35.17.15.47,0,.73s-.35.47.23.71c.72-1.1.71-2.57,1.69-3.57.27-.27-.25-.67-.59-.88.06-1.06-.92-1.88-.62-3.07.24-1,.3-1.48,1.46-.84.63.35,1,1.12,2,1.23a9.3,9.3,0,0,1-.62-1.71c-.07-.55.4-1.41-.8-.69-.26.16-.25-.39-.3-.64-.12-.62-.52-.46-.91-.33.27-.28.45-.81.88-.71,1.85.44.12-1.46,1.14-1.77.29-.09-.7-.43-1-.76s-.77.24-1.21-.24c.51-.26.54-1.06,1.36-.94s.66-.35.39-.71a7.13,7.13,0,0,0-3.57-2.9c.34,1,1.43,1.5,1.87,2.64-1.64-.17-2.1.64-1.7,2.34-1-.8-1.75-1-2.3-.13a48.09,48.09,0,0,1-3.37,4.1c2.78-.44,2.78-.44,3.15-.9-.3-.39-.81.17-1.18-.2.43-.33.77-.63,1.14-.87s.67-.82,1.32-.41.57.67.33,1.26.36,1,.91,1.12a2.39,2.39,0,0,0,1.79-.84,5,5,0,0,1-.54.86c-.94,1-1.62,2.88-3.4,1-.33-.34-.74-.14-1.11.05Zm23.45-65c-1.75.52-2.39,2.12-3.39,3.37,1.41-.43,2-2,3.39-2.39-.62,1.44-2.39,2-3,3.86,1.52-.63,2-2.15,3.25-2.61,0,0,.09.05.09,0,.39.42-.56.8.07,1.22.86-.41,1.39-1.53,2.57-1.32-.35-1.88,1.55-2.18,2.29-3.3.52-.79,1.53-1.27,1.69-2.31-.8-.41-.92.49-1.57.52a9.77,9.77,0,0,0-4.7,1.3A1.54,1.54,0,0,0,70.59,21.84Zm-3.12,7.51c.13.18.24.49.4.52A3.74,3.74,0,0,0,72.36,27c-.71-.66-1.15,2.26-2,.11-.29.18-.58.35-.85.55-.72.53-1.12,1.45-2.07,1.71,0-.85-.14-1.06-.94-.46-.45.33-.55,1.43-1.53.86s-1-.18-.6.59a.71.71,0,0,1-.11.9c-1.23,1.77-1.29,3.87-1.8,6,1.11-.2,1.65-1.65,2.85-.86,1.21-1.58,3.11-2.08,4.74-3,.33-.18.74-.47.65-.93-.13-.63-.85.43-1-.34.62-.75,1.78-1.14,2-2.8-1.09,1.37-2.4,1-3.46,1.44-.62.27-.81-.25-1.07-.57C66.69,29.73,67.05,29.51,67.47,29.35Zm3.79,86.15-.24-.59c-.56-3.16-3.68-2.84-5.66-4.07-.39-.24-1-.26-1.52-.56-.81-.49-1.28-.19-1.37.74,0,.5-.08,1-.13,1.56,1-.37.63-1.12.6-1.78l1.38.69c.8.38,2.36.08,2.24,1.25s-1.33,1.83-2.47,2.27c-.24-1.05-.94,0-1.32-.27-.28-.5.61-.71.25-1.23-1-.07-1.35.87-1.92,1.42-.22.22-.34.55.12.6,1.1.12.53.47.16.86-.65.69-1.42,1.33-1,2.47.09.23-.11.62.3.65s.77-.43,1-.81c.13-.21.48-.62.16-.68-1.6-.3-.12-1,0-1.06.71-.71,1.51-1.34,2.28-2,1.67,1.18.42,1.86-.45,2.62a6.23,6.23,0,0,0-.94,1c-.63.84-1.71,1.37-2,2.54.7.14.81-.78,1.43-.53,0,2.31-2.92.46-3.32,2.25.47.4,1-.81,1.25,0a2,2,0,0,1-.34,1.76c-1.35.92-1.41,1-.51,2.42.26.41.92.7.74,1.26-.53,1.64.57,1.57,1.56,1.52,1.21,0,1.18,1.7,2.38,1.55.18,0,.36-.41.51-.39.69.1,1.54.16,1.24,1.23-.09.3-.49.59,0,.8s.63-.22.79-.5c1.1-1.82,2.91-2.83,4.49-4,.16-.63-2.28-.94-.12-1.73.23-.08-.2-.44-.31-.68-.5-1.13-1.77-1.59-2.29-2.7,1,1.32,2.5.33,3.65.89.42-.4-.38-.72-.11-1,.84-1-.23-1.41-.7-1.58-.67-.23-.87.57-.89,1.08,0,.72-.33.73-.85.5a1,1,0,0,0-1.1.18c.79-1.21,2.2-2.33.6-3.91,0,0,0-.11,0-.16-.67-.92,0-1,.67-1.07A10.29,10.29,0,0,0,73,121.81c-.25-1.36-1.76-1.63-1.36-2.88,0-.1,0-.2,0-.3,1.26-.94.67-1.7-.2-2.49C71.28,116,71.31,115.72,71.26,115.5Zm-17.81-54c.55-.12,1.4.78,1.46.21.19-1.63,1-.25,1.06-.19.85.57,1.7,1.22,1.31,2.47a.94.94,0,0,0,.68,1.2c.81.33.31-.59.41-.6,1.22-.23,2.24-.56,1.82-2.15a.67.67,0,0,1,.29-.12c1.9-.19,1.64-1.6,1.53-2.84s-.49-2.2-2-1.27c-.92.55-1.38-.39-1.73-.87s.46-.62.77-.88.56-.12.54.27-.17.92.53.53c.43-.23,1.3-.71,1.08-.86-1.12-.81-.33-2-.8-2.94-.34-.68-.6-.79-1.06-.21-1.95,2.45-4.43,4.38-6.54,6.68-1,1.1-2.17,2-.46,3.4-.9.34-1.15-1-2.15-.54.5.91,2,1.48,1,2.79,0,0,.24.34.39.51a2.14,2.14,0,0,1,.64,1.78c-.08,1,.83,1.77,1.71,2.13.71.29.86-.71,1.29-1.08,1.15-1,.35-1.85-.64-2.89a2.33,2.33,0,0,1,1.74.92c.22.27.49.58.8.17s.72-.66.56-1.17a.66.66,0,0,0-.84-.42c-1.54.42-1.75-1-2.5-1.64a1.43,1.43,0,0,1,.82.27c.35.2.68.78,1.13.18.3-.4.66-.81.37-1.39s-.65-.53-1.24-.34a1.33,1.33,0,0,1-1.86-1.15Zm7.24,30a2.89,2.89,0,0,1-1.2-.87c-.4-.38-.85-.83-1.46-.36a1,1,0,0,0-.21,1.6c-1.44,0-1.65.14-1.42,1.29.12.61-.24.8-.53,1.12-.5.54-1,1.07-.57,1.94.22.43-.08.87-.38,1.23a.43.43,0,0,0-.12.11c-.77.8-2.06,1.15-2.26,2.44.36.35,1-.94,1.1.3.11,1.74.37,1.9,2.34.81-1.27,1.36-.37,2,.31,2.32a14,14,0,0,1,4.45,3c.26.27.72.73,1.17.27.28-.29.76-.64.47-1.16s0-1,.37-1.35c1-1.24.74-3.19,2.34-4.11.27-.15.14-.51-.11-.73s-.32-.63,0-.84c1.76-1,1.33-3.26,2.6-4.54a.38.38,0,0,0-.06-.59c-1.39-1.16-1.39-1.16-1-2.59-.39-.33-.66.46-1.06.09,1.35-2.26,1.35-2.26-.81-3.48-.51.24.86,1.12-.29.94-.37-.06-1.83,1.15-1.49-.68.12-.64-.29-.67-.7-.63a2,2,0,0,0-2,2.36c-.78-.4-1.35-2.21-2.22-.46,1.17,1,2.75,1,4,1.86C61.4,90.73,60.84,90.72,60.69,91.49Zm12.92,42.26c.68.29.74.7.37,1.35s-1.56.52-1,1.2c.28.34,1.55.17,2.31-.2.28-.13.45-.57.86-.26.34.6-1.06.95-.33,1.4s.84-.58,1.13-1a2.12,2.12,0,0,1,2.88-.8,2.15,2.15,0,0,1-.07.5c-.63,1.54-.29,1.85,1.35,1.94,1.07.06,2.43-.71,3.26.74.17.31.6.25.89,0,.59-.55,1.6-1.11,1.3-1.94-.46-1.25-1.45-.51-2.24-.17a2.72,2.72,0,0,1-.49.13c.81-.68,1.28-2.1,3.11-1.18-1.8-1.58.85-1.94.44-3.35-1.06,1.08-1.47.4-1.91-.58.8-.08,1.7.25,2-1-1.27.85-1.64,0-2-.84a1.61,1.61,0,0,0,2.15-.19c1-.83.24-2.13.79-3.14.13-.23-.49-.33-.74,0-.48.57-.88,1.2-1.69,1.34l0,0c1.06-1.46.58-3.73,2.53-4.73.28-.14.9-.39.54-.84s-.79,0-1.12.28c-.18.17-.28.51-.65.38,0-1.09,1.58-2.07,1.11-2.62-1.23-1.41.09-1.36.7-1.76.39-.26,1.13-.33.65-1-.36-.54-1-.79-1.44-.25-.62.74-.9.49-1.4-.11s-3.65-1.34-3.86-.83c-.61,1.52-2.3,1.57-3.37,2.72,1.34-.79-.4-1.48.12-2.06,1.14-1.28-.6-1.76-.78-1.69-1,.35-2.68-1-2.91.84-.13,1-.6,2.52,1,3.21.48.21.72.7,1,1.42-.91-.52-1.83.7-2.64-.35a.53.53,0,0,0-.42.13c-.19.3,0,.51.27.67a1.78,1.78,0,0,1,.53.39c.16.24,0,.38-.26.46-1.24.41-.45,1.27-.13,1.55,1,.8.92,2,1.39,3-1-.52-1.61-1.59-3-1.85l2.17,2.56c-.55.42-.79-.55-1.26-.12.53,1.43.11,2.48-.81,2.06s-1.53.27-1.42.51c.42,1-1,1.87,0,2.74a.78.78,0,0,0,1.2,0l1.13-1a4.31,4.31,0,0,0,.31,2.1.94.94,0,0,0-1.44.34c-1.45.21-1.63,1.48-2.24,2.41C73.3,134.87,73.32,134.85,73.61,133.75Zm20.31,31.47H94c1.55-.42,2.45,1.17,4.07,1.26s2.85-1.08,4.29-.22c.06,0,.6-.45.56-.54-.63-1.46,1.1-2.54.61-4-.12-.34.36-.85-.2-1a.94.94,0,0,1-.27-1.77c1.5-1,.82-2.55,1.13-3.83a1.23,1.23,0,0,0-.73-1.24c-.45-.24-1.46.08-1.23-1a2.39,2.39,0,0,1,1.09-1.47,2.11,2.11,0,0,0,1.27-1.82c-.76,0-.76,1-1.46.88-.1-1.13,3.44-2.36-.06-3.38l0,0c0-.73.72-1.42-.07-2.19s-.52-1.17.54-1.29,1.86-.71,1.54-1.93c-.36-1.39-1.64-1.33-2.49-.91a5.33,5.33,0,0,1-3,.33c-3-.31-6-.07-9-.21-.27.65.78.77.36,1.37-.87-.2-1.11-1.56-2.37-1.15.65.74.74,1.75,1.64,2.26-.49-.33-1.32.41-1.47-.36-.07-.37.36-1-.37-.88a1.2,1.2,0,0,0-.83,1.44,2.23,2.23,0,0,1,0,1.61c-.15.5-1.11.72-.42,1.57s1.16-.24,1.65.22c-.26,1.22-1,1.26-2,.59.07.9.63,1.16,1,1.52s.48.7,0,1c-1.7,1-1.74,2.57-1.46,4.25,0,0,0,.1,0,.14-.36,1.52-.08,3.16-.54,4.59-.32,1-.64,1.64,1,2.27-2.63.11-1.59,1.93-2.1,2.93a1,1,0,0,0,.7,1.46,1.66,1.66,0,0,0,2-.85,7.15,7.15,0,0,0,.28-1.15c1,.69-.24,1.42.27,2.14,1.39-.38,1.78-2.27,3.46-2.33-1.07.33,1,2.3-1.23,1.89.66,1.54,2.11-.11,2.69,1C93.62,166.15,92.37,164.68,93.92,165.22ZM108.45,170a1.93,1.93,0,0,0-1.67-1.21c-1.38-.25-1.34,0-1.43,1.41,0,.81.75,1.66.34,2-1.3,1-.41,1.53.25,2.05,1.07.85,1.8,1.65.48,2.86a.62.62,0,0,0-.11.78c.61,1.4-.21,1.75-1.42,1.74.17,1.35,2.08,1.29,2.06,2.7-.92.17-1-1.29-1.91-.83-.18.83.85.88.93,1.56-1.75,0-.82,1.27-1.13,2,1,.16,1.18-1,2-1a3.63,3.63,0,0,0-.15.85c0,1.34.06,1.33-1.23,1.21-.33,0-.67.39-.6.45,1.06.81.1,1.81,0,2.5-.21,1.52.4,3,0,4.44-.19.72.35,1.21.84,1.53s.91-.11,1.18-.59a3.13,3.13,0,0,1,2.12-1.76c-.85.9-.26,1.87.14,1.8,1.88-.34,4,1.57,5.7-.68-.46,1-.12,1.58.69,1.64,1.55.11,3.11,0,5,0-1.2-.86-.68-1.61-.24-2.25a1.83,1.83,0,0,1,2.58-.71c-.26.44-.5.88-.78,1.31-.46.72.36.83.59,1.21.42.69.58,0,.81-.22.62-.64,1.06-.79,1.46.26.33.86,1.18.38,1.81.41.28,0,.61,0,.63-.4,0-.72-.63-.89-1-1.23s-1.28-.57-1.3-1.42c.67-.47,2.26.11,2-1.22a27.2,27.2,0,0,1,0-6.18c.09-1.93-1.17-.07-1.23-.9.71-.62,1.9-1.23.78-2.52,1.52-1.53-1.3-1.68-1-2.83.66-.33.82,1,1.46.4a1.1,1.1,0,0,0,.24-1.41,5.55,5.55,0,0,1-1.57-3.58c0-1.42-1.36-2.9.42-4.19.5-.36.26-1-.06-1.56a2.59,2.59,0,0,0-3.93-.56c-.41.38-.54.52-.86,0-.16-.25-.41-.49-.67-.2s.06.55.29.79c1.13,1.19,1.12,1.2,0,2.27-.34-.47,0-1-.25-1.58-.82-1.9-2.46-1.12-3.73-1.3-2.07-.3-4,1.17-6.13.67-1.4-.33-2,.33-2.44,1.51Zm16.71-5.41a6.85,6.85,0,0,0,1.47-7.63,1.73,1.73,0,0,1,.24-1.47,2.58,2.58,0,0,0,.36-1.46c-.07-2.11-.2-4.22-.09-6.31,0-.78-.65-1.65-.54-1.73a2.06,2.06,0,0,0,.53-2.39c-.28-.94.72-2.05-.34-2.75-1.23-.8-1.31-1.49-.06-2.32.24-.16.6-.4.25-.9-1.39.55-3.29-.06-4.12,2-.09-.5.49-1.45-.25-1.18-1.21.43-3-.23-3.42,1.52-.89-1.29-2-.59-3-.6-1.2,0-2.4,1.21-3.14,1-1.75-.45-3.25.31-4.86.32-.78,0-1.07.68-1.26,1.4-.32,1.19,1,2.33,0,3.61-.33.41.85,0,.91.62-.58.51-1.23.75-1.09,2,.16,1.39-.06,3,.09,4.32s-.8,1.89-.78,3c0,2.12-.32,4.27-.1,6.36.06.57-1.15,2.18,1,2.17-1.1.43-1.63,1.07-1.55,2s.93-1.48.84.31c0,.41.22.45.54.42,2.67-.24,5.35-.43,8-.74a42.09,42.09,0,0,0,4.42-.57c1.37-.3,3,.41,4.06-1.11.43.47-.49.95.15,1.25.45.22.68-.28,1-.49a9.88,9.88,0,0,0,.77-.66c0,.93,0,.93,2.12.7A1.32,1.32,0,0,0,125.16,164.58Zm92.07-5.29c-.66-2.65-1-5.37-1.51-8-.87-5-1.85-10-2.57-15-.29-2-.91-2.33-2.49-1.09a48.19,48.19,0,0,1-6.35,3.73c-2.1,1.17-4.27,2.26-6.24,3.6s-4.21,2.44-6.31,3.59c-1.43.79-2.45,2.25-4.17,2.52-1.42.23-1.8,1.13-1.6,2.49a53,53,0,0,1,1,8.46c-.05,3.17.6,6.23.86,9.34.36,4.23,1,8.44,1.37,12.66.08.94.21,1,1.05.83,2.14-.45,3.89-1.77,5.78-2.71,2.81-1.4,5.66-2.75,8.42-4.27,4.31-2.38,8.81-4.4,13.21-6.59.6-.3,1.54-.8,1.15-1.43-.6-1-.33-1.94-.59-2.88C217.81,162.78,217.69,161,217.23,159.29Zm-59.77,32.18c1.58.11,2.77-.65,4-.84A47,47,0,0,0,168,189c1.86-.57,3.74-1.17,5.59-1.59,2.21-.49,4.3-1.31,6.48-1.83,1.15-.27,2.23-1,3.33-1,1.27,0,2.3-.6,3.47-.8a1.29,1.29,0,0,0,1-1.42c-.39-3.16-.83-6.32-1.14-9.49-.21-2.16-.72-4.3-.78-6.44,0-.94.19-1.36-1.17-1.23,2-.95.71-2.16.62-3.23-.27-3.4-.51-6.81-.85-10.2-.09-.91-.3-1.7-1.76-1.07-3.36,1.44-6.84,2.6-10.27,3.89-2.34.88-4.64,1.87-7,2.67s-4.39,2-6.76,2.48c-1.83.38-2.41,1.2-2.36,3.1.1,4,.56,8,.73,12.05.17,3.87.11,7.77.51,11.65C157.73,188.11,158.54,189.78,157.46,191.47Zm54.4-59.92a3.44,3.44,0,0,0-.44-1.55c-1.95-4.07-3.17-8.42-4.86-12.6-1.58-3.92-2.92-8-4.44-11.9-.68-1.74-1.34-1.83-2.77-.67a7.65,7.65,0,0,1-1.93,1.37c-2.8,1.06-5,3.13-7.47,4.63-3.1,1.83-6,4-9.18,5.71-1.44.77-2.31,1.83-1.57,3.74a26.76,26.76,0,0,1,1.2,4.92c1.24,7.14,3.43,14.06,4.75,21.17.13.69.43,1,1.32.78a19.61,19.61,0,0,0,5.75-3c3.31-2.14,6.9-3.8,10.21-5.95,1.56-1,3.06-2.36,4.91-2.91,1.65-.49,2.67-1.92,4.19-2.58C212,132.5,211.89,132,211.86,131.55Zm30,14.92c-.27-1.4-.43-2.69-.76-3.95-2.16-8.2-4.24-16.42-6.1-24.7-.22-1-.21-2.58-1.14-2.85s-1.88,1-2.67,1.77c-5.33,5-10.58,10.13-15.92,15.14a2.86,2.86,0,0,0-1,3c1.17,6.12,2.14,12.28,3.4,18.38.85,4.06,1.53,8.15,2.25,12.23.21,1.14.75,1.33,1.61.52,1-1,2-2,3.1-2.91,5.7-4.63,10.87-9.82,16.14-14.9C241.22,147.66,241.89,147.22,241.83,146.47ZM188,213.59c1.08-1.06,2.54-.82,3.46-1.54,1.42-1.1,3.16-1.44,4.71-2.16a13.88,13.88,0,0,1,3.11-1.49c1.8-.34,3.26-1.41,4.88-2.09,2.81-1.18,5.59-2.45,8.36-3.72,1.76-.8,3.87-1.34,4-4,.15-3.09.32-6.19.7-9.27.42-3.46.51-7,.78-10.45.22-2.8.9-5.57.53-8.54-1.49,1-3.3,1.14-4.77,2.3a8.89,8.89,0,0,1-3.42,1.77c-2,.39-3.51,1.58-5.1,2.43-1.85,1-4.13,1.37-5.59,3.08-.07.09-.15.21-.24.23a18.2,18.2,0,0,0-6.12,2.88,3.79,3.79,0,0,1-1.81.77c-1,.09-2.06.77-2,1.79a36.17,36.17,0,0,1-.34,5.72c-.34,5.07-.33,10.15-.81,15.21C188.15,208.72,188.13,210.94,188,213.59Zm-31.75-54.8c3.16-.63,5.88-2.13,8.81-3,2.24-.67,4.31-1.9,6.54-2.61,4.05-1.28,7.93-3,11.94-4.43.41-.15.69-.39.41-.67-.87-.87-.5-2-.78-3-.68-2.42-1-4.92-1.69-7.37-.58-2.1-.8-4.3-1.55-6.41a7.16,7.16,0,0,1-.79-2.85c.29-2-.7-3.67-.95-5.51a18,18,0,0,0-1.1-4.4c-1.37,2.14-4,1.75-5.73,3.24a9.06,9.06,0,0,1-3.29,1.5,26.94,26.94,0,0,0-5.09,2.24c-1.48.71-3,1.4-4.48,2-1.07.46-2,1.45-3.25,1.47-1.55,0-2.06.65-1.84,2.2.64,4.44,1.11,8.92,1.46,13.38C155.24,149.31,155.87,154,156.25,158.79Zm29.58,40.93c1.13-.16,1.31-.72,1.35-1.65.14-3.36.59-6.71.51-10,0-.72-.39-1.33.17-2,.14-.17-.2-.57-.29-.46-.71.87-1.64,0-2.47.38a23.44,23.44,0,0,1-3.82,1.27c-2.86.82-5.77,1.51-8.59,2.45-2.58.85-5.48.74-7.77,2.48-1.91-.7-3.47.89-5.33.83a1.83,1.83,0,0,0-1.74,1.8c-.09,3.43-.18,6.86-.11,10.28,0,2.77-.37,5.51-.33,8.29,0,1,1.14.78.86,1-1.08.74-.08,1.92-.79,2.81a2,2,0,0,0,.2,2.31,1.59,1.59,0,0,0,2.41-.3c.09-.12.32-.27.41-.23,2.15,1.06,3.87-1,5.86-.82,1.08.08,2-.72,2.85-.64,2,.17,3.82-.79,5.72-1.14s3.85-.61,5.76-1c1.71-.32,3.23-1.45,5.07-1.19.18,0,.63-.59.64-.92,0-1.85.15-3.72.14-5.54a38.73,38.73,0,0,1,.28-5.81C187,200.94,187,200.19,185.83,199.72Zm-50.37-6.15c.64.51,1.14,1.12,1.89.83,1.92-.74,3.94-.42,5.91-.6,3.37-.32,6.64-1.49,10.11-1.21.48,0,1.07-.39,1.8-.31s.86-.71,1.07-1.45c.38-1.33-1.63-2.44-.2-3.73-.59-2.52-.39-5.1-.51-7.66-.09-2.15-.61-4.36-.45-6.4.27-3.5-.82-6.83-.57-10.27.09-1.14-.65-1.41-1.55-1.08-1.84.66-3.8.66-5.65,1.19-1.24.35-2.67,1.51-3.59,1.17-1.61-.6-2.73.45-4.09.52-2.69.14-5.35,1.09-8,1.63s-3.16,1.62-1.86,4.1a2,2,0,0,1,0,1.81c-.63,1.49-.37,1.87,1.51,1.83-.82.72-2.26.53-2.22,2.15,0,.61.82.85.36,1.6a3.94,3.94,0,0,0-.17,2.52,11.43,11.43,0,0,1,.17,4.14c-.42,1.57.36,3-.17,4.59-.41,1.26,0,3.09-.13,4.68a1.71,1.71,0,0,0,.86,1.54c.7.51,1.52-.16,2.34-.13.53,0-.41-.76-.25-1.25.65.13.8.6,1.09.94.77.9,1.52-.93,2.31,0ZM219.15,87.09a8.84,8.84,0,0,0-.85.65c-.86.81-1.7,1.66-2.57,2.48-3.88,3.66-7.78,7.31-11.65,11-.73.7-1.61,1.39-1.16,2.61q1.58,4.27,3.2,8.54c2.16,5.71,4.35,11.4,6.49,17.11.66,1.78,1.14,2,2.57.62,2.11-2,4.17-4,6.28-6,3.66-3.41,7.34-6.78,11-10.18.52-.49,1.2-1,.73-1.87-1.21-2.35-2.28-4.83-3.66-7-1.82-2.88-3.12-6-4.88-8.91-1.58-2.6-2.91-5.37-4.35-8.06C220.06,87.61,220,87.05,219.15,87.09ZM129.4,161.57a15.41,15.41,0,0,0-.2,2.53c-.08.81-.07.93.71.71.52-.15,1.12-.07,1.64-.23,3.69-1.11,7.53-1.56,11.27-2.46,3.55-.86,7.1-1.71,10.7-2.38.76-.13,1-.53.93-1.32-.22-1.49-.4-3-.54-4.49-.35-3.77-.79-7.53-1-11.31-.08-1.77-.73-3.42-.64-5.25a39,39,0,0,0-.58-6.15c0-.45-.34-.87-.79-.57-1.63,1.06-3.6.88-5.34,1.57a15.85,15.85,0,0,1-3.41,1.21,18.79,18.79,0,0,0-3.77,1.15c-1.15.4-2.77-.08-3.5,1.41,0,0-.25,0-.31,0-.75-.8-1.17,0-1.68.35s-.66.61-1.3.2-1.73.86-2,1.36c-.66,1.27-.17,2.51-.26,3.76-.17,2.6-.33,5.2-.24,7.79s-.8,5,.49,7.35C128.57,158.33,129.79,160,129.4,161.57Zm112.25-10.25c-.09-.59.47-1.21-.14-1.52s-.94.42-1.37.74a3.17,3.17,0,0,0-.5.47c-5.42,5.59-11.17,10.85-17,16a6.49,6.49,0,0,0-2.49,5.25,45.92,45.92,0,0,1-.52,6.84c-.33,2.24-.48,4.5-.6,6.73-.21,4-.67,8-.74,12,0,.31-.45.64-.09.92s.74-.08,1-.34c1.79-1.65,3.58-3.31,5.34-5,4.27-4.08,8.42-8.28,13-12a3.35,3.35,0,0,0,1.32-2.27c.14-1.52.28-3,.51-4.54.46-3.08.64-6.2.95-9.3C240.72,160.55,241.19,155.88,241.65,151.32Zm-62.79-35.11.78-.5c4.19-2.62,8.49-5.07,12.53-7.9,2.42-1.69,5.05-3,7.37-4.88.49-.38,1-.76.62-1.39-.58-1.11-.88-2.32-1.55-3.41-1.18-1.91-2.17-3.95-3.26-5.93-1.77-3.22-3.56-6.42-5.32-9.65-.71-1.3-1.5-1.3-2.53-.33-2.4,2.28-5.4,3.71-8.1,5.56a50,50,0,0,1-5.76,3.88c-2.8,1.38-2.8,1.36-1.9,4.24,1.45,4.59,2.87,9.19,4.32,13.79q.9,2.82,1.86,5.63C178.06,115.73,178.14,116.24,178.86,116.21Zm-29.11-11.06a8.14,8.14,0,0,0,.08.85c.49,3.28,1,6.55,1.47,9.83.52,3.67,1,7.35,1.5,11,.11.89.34.8,1.14.77,1.5,0,2.25-1.27,3.42-1.71,3.08-1.17,6-2.55,9-4a24.35,24.35,0,0,1,3.88-1.88,15.53,15.53,0,0,0,5.82-2.75c.47-.37,1-.87.49-1.41-1-1.09-.68-2.6-1.35-3.85a9.93,9.93,0,0,1-1-3,27.47,27.47,0,0,0-1.82-6c-.87-2.09-1.2-4.28-1.91-6.38-.56-1.65-1.29-2.35-2.82-1.61-2.57,1.24-5.07,2.65-7.61,4-3.15,1.62-6.3,3.23-9.48,4.8C150,104.17,149.63,104.46,149.75,105.15Zm.88,18.49.15,0c-.35-2.26-.71-4.51-1-6.77-.26-1.82-.63-3.62-.76-5.47a42.64,42.64,0,0,0-.74-5c-.16-.83-.61-1.27-1.6-.79-2.13,1-4.4,1.85-6.59,2.74-1.74.7-3.74,1-5.59,1.68a35.37,35.37,0,0,1-4.21,1.44c-1.19.25-1.57,1.34-1.55,2.47.11,7,.26,13.92.36,20.88,0,.69.26.86.8.63,2.38-1,4.94-1.43,7.37-2.28,3.2-1.13,6.48-2,9.71-3,1.06-.33,2.12-.72,3.18-1.08a1.67,1.67,0,0,0,1.15-2.16C151,125.83,150.84,124.73,150.63,123.64Zm67.82-38.4a10.51,10.51,0,0,0-.55-.91c-.51-.69-1-1.35-1.54-2-3.47-4.69-7-9.31-10.76-13.79-.88-1.05-1.53-1.06-2.48-.14-3.8,3.67-7.54,7.38-11.57,10.8a1.78,1.78,0,0,0-.45,2.56,87.66,87.66,0,0,1,4.17,7.76c1.81,3.45,3.81,6.8,5.61,10.26.65,1.27,1.22,1.46,2.27.53,5.09-4.45,9.91-9.18,14.69-14A1.32,1.32,0,0,0,218.45,85.24Zm2.21.19c.16.51.3.88.4,1.26.38,1.47,1.41,2.59,2.1,3.89q5.15,9.8,10.28,19.58c.55,1,1.13,1.08,1.69.07a57.8,57.8,0,0,0,3.46-6.6c1.15-3,2.91-5.59,4.09-8.52a3,3,0,0,0-.24-3.27c-1.63-2.39-3.23-4.81-4.75-7.27-2.3-3.71-4.45-7.5-6.8-11.17-1.39-2.17-2.18-2.09-3.37.2-1.46,2.82-3.25,5.44-4.89,8.15C221.9,83,221.29,84.24,220.66,85.43Zm-94.47,43.83c.17-.34,1,.49.87-.62-.15-1.78.15-3.58.14-5.37,0-3.17-.07-6.33-.21-9.49,0-.48,0-1.46-1.19-1.2-5,1.11-10,2.18-14.94,3.27a1.77,1.77,0,0,0-1.65,1.83,47.68,47.68,0,0,1-.5,6.51c-.51,3-.19,6.05-1,9-.36,1.35.11,2.65,0,3.94s.25,1.86,1.53,1.62c1.85-.34,3.72-.71,5.56-1.06,1.24-.24,3.23.65,3.72-1.49.63.21-.37,1.32.88,1.08a24.38,24.38,0,0,1,5.79-.92,2,2,0,0,0,2.11-1.9c.08-.54-.76-.64-.49-1.15A3.47,3.47,0,0,0,126.19,129.26ZM235,113.14c.1.48.16.81.24,1.14l6.87,27.9c.16.64.12,1.54,1,1.54.73,0,.81-.85,1.11-1.37a6,6,0,0,0,.22-.64c1.82-4.33,3.71-8.63,5.42-13,.84-2.15,2.09-4.17,1.28-6.8-1.53-5-2.73-10.06-4.08-15.09-.82-3.07-1.64-6.14-2.49-9.2-.13-.47-.26-1.1-.83-1.19s-.76.59-1,1q-3,5.89-5.94,11.81C236.22,110.57,235.62,111.91,235,113.14ZM146.33,85.48c.95,5.41,1.85,10.65,2.81,15.89.19,1.08,1,1.16,1.83.72,1.39-.73,2.84-1.4,4.18-2.16,4-2.28,8.28-3.89,12.21-6.28,1.48-.89,1.43-1.59,1-2.75-1.76-4.58-3.62-9.13-5.29-13.75-.36-1-.69-.72-1.32-.53-2.48.75-4.3,2.72-6.75,3.56s-4.31,2.47-6.63,3.41C147.45,84,146.46,84.42,146.33,85.48ZM90.26,135.21c-1.63.17-2.05.92-1.85,2.17a1,1,0,0,1-.12.65c-.51.79-.5,1.06.61.94a18.33,18.33,0,0,1,4.79.16,8.19,8.19,0,0,0,2.88,0c2.61-.55,5.29.5,7.87-.42.28-.1,1.06.76,1,.06s.31-1.93,0-1.93c-1.6,0-.82-1-1.06-1.6.48-.31,1.53,1.5,1.38-.61,0-.64.1-1.66,0-2.31-.22-1.49.76-2.64.7-4.12a12.44,12.44,0,0,1,.34-4.24c.55-1.79,0-2.33-1.54-2.06.28-.3.42-.57.64-.67,1.47-.66,1.42-2.08,1.61-3.31a1.12,1.12,0,0,0-1.1-1.42c-3,.19-5.93,0-8.83.5-.12.77.93.78.73,1.5a1,1,0,0,1-1.17-.51c-1.14-2.21-3.07-.49-4.58-.83a3.6,3.6,0,0,0-1.13,2.37c.27,2-.62,3.82-1.06,5.65s.88.34,1.06.77c-.1,1-1.71,1.1-1.46,2.43l1.62-.92c-.6,1.27-1.84,1.7-2.1,2.88,1,.14,1.16-1,2.31-1a14.43,14.43,0,0,1-1.34,1.2c-1,.68-.68,1.9-1.08,2.67C88.66,134.48,88.29,135,90.26,135.21Zm74-59.26c-.06,1.62.88,3.09,1.48,4.51,1.39,3.34,2.53,6.77,4,10.09.53,1.21,1,1.29,2,.63,3.36-2.31,6.94-4.29,10.11-6.87a6.79,6.79,0,0,1,2-1.29c1.58-.53,2.56-1.86,3.89-2.7.48-.3.77-.75.3-1.28-1.14-1.28-1.68-3-2.72-4.26C183.05,72,181.38,68.72,179,66c-.48-.55-.83-.52-1.28-.21q-6.47,4.48-12.93,9A1.07,1.07,0,0,0,164.28,76Zm49.23-21.14a3.68,3.68,0,0,0-1.58,1.57q-2.91,4.38-5.86,8.75a1.54,1.54,0,0,0,.07,2.11c4.17,5.31,8.3,10.66,12.43,16,.8,1,1.44.91,2.08-.16q3.57-6,7.19-12a1.6,1.6,0,0,0-.06-2.16c-4.26-4.66-8.65-9.18-13.13-13.61A1.37,1.37,0,0,0,213.51,54.81Zm-84.64,52.52a4.83,4.83,0,0,0-.12,2.28c0,.47.29.66.66.46,1.74-.95,3.7-1.26,5.54-1.94a58.78,58.78,0,0,1,7.19-2.65,16.58,16.58,0,0,0,4.09-1.42,2.21,2.21,0,0,0,1.3-2.72c-.89-5-1.93-9.92-2.55-14.94-.06-.48-.29-1.08-.83-.63-1.08.93-2.54.68-3.74,1.42a13.11,13.11,0,0,1-3,1.32c-1.92.55-3.88.94-5.5,2.21-.33.26-.65.18-1,.2a2.47,2.47,0,0,0-2.45,2.15c-.06,1.8,0,3.64.1,5.46C128.61,101.49,128.26,104.48,128.87,107.33Zm61.06-28.87a1.73,1.73,0,0,0,1.15-.56c4.08-3.35,7.71-7.19,11.6-10.76.55-.51.77-1.07.11-1.75-3.38-3.43-6.74-6.89-10.11-10.33a1.56,1.56,0,0,0-2.5-.12c-3,2.72-6.11,5.41-9.26,8-1.18,1-1,1.82-.29,2.88,1.12,1.57,2.35,3,3.35,4.7,1.42,2.37,3,4.63,4.58,6.92A1.83,1.83,0,0,0,189.93,78.46Zm-62.86,22.43h-.32c0-2.44,0-4.87,0-7.31,0-1.18-.77-1.25-1.46-1a18.3,18.3,0,0,1-2.5.69c-.81.22-1.68,0-2.43.45-1.68,1.12-3.73,1-5.59,1.37-2.15.38-3.41,1.25-3.42,3.47a12.55,12.55,0,0,1-.16,2.25c-.81,3.94-.62,8-1.43,11.9-.26,1.27.36,1.31,1.28,1.27,1.72-.07,3.31-.76,5-1,3.33-.48,6.6-1.38,9.91-2,.94-.17,1.16-.51,1.13-1.44C127,106.67,127.07,103.78,127.07,100.89ZM110,96.07a5.17,5.17,0,0,1-2.21.13c-3.46.2-6.91.57-10.37.74-.93,0-1.2.41-1.34,1.14-.37,2-1,4-1.27,6-.16,1-.68,1.81-.83,2.75a33.81,33.81,0,0,1-1.26,6.3c-.53,1.43-.08,1.85,1.34,2a23.44,23.44,0,0,0,2.46-.37c1.9,0,3.83.55,5.69.09,1.37-.34,2.74.25,4.2-.67s1.45-.41,1.63-2.06a18.54,18.54,0,0,0,.2-4.75c-.21-1.39.88-2.28.8-3.65A25,25,0,0,1,110,96.07Zm89.59-52.4c-.49,0-.85.08-1,.38-1.55,2.67-3.94,4.7-5.54,7.33a1.87,1.87,0,0,0,.21,2.61c3.38,3.28,6.72,6.62,10,10,1,1.07,1.79.9,2.56-.28,2-3.08,4-6.17,6.13-9.21.55-.8.47-1.42-.26-1.89-4-2.55-7.37-5.88-11.33-8.47C200.09,43.94,199.79,43.79,199.59,43.67ZM143.52,70.81c-.61,1,.45,1.73.5,2.67.19,3,1.26,5.92,1.53,8.94,0,.62.35,1,.84.53.94-.82,2.31-.82,3.16-1.55,1.63-1.39,3.69-1.87,5.46-3A24.77,24.77,0,0,1,159.64,76c2-.74,2.23-1.53,1.33-3.46-1.31-2.81-2.91-5.48-3.79-8.48-.37-1.24-1.34-1.08-2-.7-1.67.9-3.34,1.83-5,2.79-1.83,1.07-3.83,1.77-5.61,2.92C143.91,69.51,143,69.58,143.52,70.81ZM88,98.05a5.8,5.8,0,0,0-4.22-2.34c-1-.18-1.27.09-1.46.74-.89,3.12-1.54,6.31-3.07,9.21-.07.14-.17.24,0,.43a3.33,3.33,0,0,1,0,2.89c-.69.89-2.29,1.41-1.15,3-1.38,1.83.49,1.39,1.2,1.62a2.11,2.11,0,0,0,2.45-.41c1.12,1.71,1.38-.29,2.06-.48.23-.06.35-.5.63-.23.17.83-.72,1-.91,1.65,1.89.05,3.61.81,5.51.75.89,0,1.83,0,1.79-.89a17.13,17.13,0,0,1,.39-2.19c0-.17-.49-.42-.79-.57-.49-.24-.53.09-.6.48-.12.7-.44.29-.62,0-.34-.48.09-.85.28-1.23s.45-.53.83-.29c1.51,1,1.37-.41,1.53-1.16.24-1.08.28-2.22.53-3.3.42-1.86,1-3.68,1.38-5.54.21-1,.18-2.14-1.48-1.56L92,98.31l2.19-.46,0-.46c-2.26-.93-4.81-.33-7.09-1.38C87.14,97,88,97.19,88,98.05Zm56.23-14.89c-.89-3.75-1.09-7.56-2.23-11.18a1.23,1.23,0,0,0-2-.74c-2.11,1.23-4.52,1.66-6.71,2.69-1.21.57-2.42,1.45-3.75,1.56-1,.08-1.09.47-1.22,1.2-.28,1.52.24,3,0,4.55a28.86,28.86,0,0,0,.15,3.83c0,1.33.32,2.8-.15,4.14-.24.7.15,1,.62.71,1.71-1,3.7-1.24,5.48-2q3.84-1.68,7.81-3C143.07,84.58,144.08,84.31,144.18,83.16ZM169.53,54a2.62,2.62,0,0,0-1.47.86,6.78,6.78,0,0,1-2.2,1.57c-2.7,1-4.48,3.43-7.05,4.66a1.1,1.1,0,0,0-.65,1.54q2.26,5.1,4.54,10.18c.48,1.07,1.21.81,1.94.29,1.24-.88,2.43-1.87,3.73-2.64,2.93-1.74,5.45-4.06,8.48-5.64,1-.5,1-1.15.23-2A46.3,46.3,0,0,1,171,55.29,2.16,2.16,0,0,0,169.53,54ZM112,94.22a6.49,6.49,0,0,1,1.52-.66c4.2-.44,8.13-2.17,12.34-2.57.51,0,1-.7.89-.83-1-.86.07-1.54.09-2.28.12-3.71-.41-7.42-.07-11.13,0-.35-.3-.38-.63-.29-2.53.71-5,1.51-7.62,2.06-1.17.25-2.4,1.24-3.19,1.06-1.64-.35-1.61.4-1.74,1.43C113,85.31,112.51,89.6,112,94.22ZM70.9,109.86c1.08.33,1,.37,1.72,1.42.35.53.84,1.46,1.59.23a4.81,4.81,0,0,1,1.19-1.19c.64-.48,1.42-.83.9-1.87-.19-.37.22-.6.37-.89a12.38,12.38,0,0,0,1.24-4.07c.12-.88,1.45-2-.33-2.81-.21-.09.19-.56.58-.55a1.46,1.46,0,0,0,1.34-2.24c-.72-1,0-1.14.36-1.59.63-.82,1.23-1.41-.37-2A8.43,8.43,0,0,0,75.05,94c-.1-.52.83-.82.36-1.06-1.94-1-3,.57-4.13,1.74-.37-.53.54-.91,0-1.29s-.67.39-1,.55c-1,.44-1.36,1.4-1.94,2.29.52.23,1-.61,1.27,0,.2.43-.24.79-.57.93-2.21,1-2,3.42-3.08,5-.17.25-.09.7.15.77,1.59.44,1.7,2.31,3,3.06a1.5,1.5,0,0,1,1,1.68,39.65,39.65,0,0,1-3.44-3.42c-.23-.25-.45-.6-.83-.46-.68.26-.07.57,0,.9.11.86-.81-.2-.91.46l1,1.35c-.53,0-1-.5-1.21.06s.26.54.49.77c.5.48,1,.3,1.6.2a.73.73,0,0,1,.81.49c.11.29-.08.4-.36.4-1.36,0-.57.54-.18.9,1.16,1.08,3,.43,3.93,1.88C71.53,110.58,70.57,110.31,70.9,109.86ZM179.19,62.75a7.45,7.45,0,0,0,.83-.61c3.06-2.7,6.08-5.45,9.18-8.1.8-.68.78-1.11.12-1.75a81.6,81.6,0,0,0-8.15-6.94,1.27,1.27,0,0,0-1.82-.06c-2.65,2.3-5.3,4.61-8,6.89-.42.37-.57.65-.2,1.12,2.34,3,4.33,6.25,7,9A1.25,1.25,0,0,0,179.19,62.75Zm-74.35,32v.08l4.07-.31c.79-.06,1.6-.64,1.32-1.21-.67-1.34.39-2.23.5-3.34.28-2.73.63-5.44.93-8.16.22-1.93.2-1.91-1.8-1.67a51.42,51.42,0,0,1-7.13.45c-.94,0-2.68-.45-2.62,1.43.08,2.17-1,4-1.39,6s-1,3.7-1.55,5.55c-.36,1.29.19,1.77,1.48,1.64C100.71,95.06,102.78,94.92,104.84,94.76ZM229.27,60.81c-.16-1.66.75-3.43-.9-4.94-3.7-3.37-7.26-6.87-10.89-10.31-1.21-1.14-1.72-1-2.09.68s-.58,3.6-1.08,5.34a2.63,2.63,0,0,0,.81,2.89c1.3,1.27,2.6,2.54,3.87,3.84l8.22,8.39c.35.36.73.84,1.28.69s.47-.82.5-1.3A33.26,33.26,0,0,0,229.27,60.81ZM95.64,87.42c.57.09.43-.51,1-1.13,1.13-1.14.67-2.72,1.55-3.83a1,1,0,0,0,0-1.39c-.32-.44-.66-.59-1.15-.27-.71.47-1.66-.82-2.28.31-1.25-1-2.82-.81-4.24-1.12-1.22-.27-3.06.75-2.86,1.82.35,1.8-2,2.64-1.21,4.42-1.53,1.68-1.86,3.9-2.64,5.92-.57,1.45-.4,1.76,1.15,1.9,2.36.21,4.74.38,7.09.7,3,.41,3.4.2,3.48-2.73a3.59,3.59,0,0,1,.76-2.29C97.24,88.59,95.45,88.32,95.64,87.42ZM229.92,65.94c0,2.15-.25,4.32,1.34,6.16a14.76,14.76,0,0,1,1.36,2.15c2.21,3.62,4.39,7.25,6.62,10.85.87,1.4,1.82,2.74,2.74,4.1.19.28.34.63.76.55s.33-.32.32-.53a106.34,106.34,0,0,0-.94-11.83c0-.21-.25-.38-.33-.59-.85-2.06-2.38-3.69-3.49-5.6-2.13-3.66-4.42-7.24-6.65-10.85-.18-.28-.4-.63-.77-.59-.53.05-.51.56-.54.93C230.18,62.43,230.06,64.19,229.92,65.94ZM74.39,89.36c.12.65-.39,1.25.45,1.6,1.77.72,3.73,1,5.31,2.19.51.4.9-.15,1.32-.44,1.39-1,1-2.78,1.79-4.14.95-1.56,1-3.79,2.14-5.47a.85.85,0,0,0,0-1c-.41-.58-.34-.77.37-1a1.22,1.22,0,0,0,.7-1.67c-.28-.52-.69-1.45-1.69-.71-.35.26-.67-.12-.85-.37-1-1.41-3-.78-4.12-2.06-.18-.21-1.16.48-1.78,0-.09.14-.28.34-.24.4.61.94-.29,1.28-.73,1.76-1,1.14-.52,3.14-2.19,3.92.85,1.38-.55,2-1.12,2.69-.86,1-.92,2.37-1.62,3.42-.27.4-1,.7-.66,1.21.2.3.92.24,1.41.35S73.82,89.61,74.39,89.36Zm176.07,42.28a6.67,6.67,0,0,0-1.4,2.39,88.2,88.2,0,0,1-3.62,8.93,23.11,23.11,0,0,0-2.3,8.93c-.44,5.44-1.07,10.85-1.72,16.27a16.42,16.42,0,0,0-.27,4.83c1.34-.77,1-2.19,1.57-3.2a12.06,12.06,0,0,0,1.38-3.29c.33-1.76,1.33-3.18,1.77-4.85a28.32,28.32,0,0,1,1.67-4.05c1-2.3.94-4.77,1.19-7.19.51-5,1.21-9.89,1.73-14.84A9,9,0,0,0,250.46,131.64ZM187.68,36.22a2.53,2.53,0,0,0-2.05,1.21c-1.34,1.77-2.62,3.57-3.94,5.35-.35.49-.43,1,.1,1.34,3,2,5.33,4.77,8.15,7a1.34,1.34,0,0,0,2.18-.29c1.56-2.1,3.14-4.17,4.69-6.27s1.41-2.1-.81-3.24a4,4,0,0,1-.85-.56c-1.91-1.74-4.46-2.49-6.45-4.11A3.33,3.33,0,0,0,187.68,36.22Zm-47,22.94c.38,2.89,1.47,5.44,1.82,8.18.11.94,1.08.81,1.66.45,1.48-.91,3-1.7,4.54-2.5,2-1.06,4.08-2.11,6-3.37.81-.52,1-1.05.56-1.61-1.19-1.61-1.63-3.59-2.83-5.2-1.37-1.85-2.17-2.16-4.11-1a55.86,55.86,0,0,1-7,3.68C140.64,58.12,140.4,58.6,140.65,59.16ZM214.9,43.74c0-.62-.68-1.24-1.43-1.74-3.31-2.27-6.67-4.48-10-6.74-.89-.61-1.33-.27-1.67.57A39.65,39.65,0,0,0,200.11,41a1.93,1.93,0,0,0,.91,2.32c1.31.89,2.61,1.81,3.88,2.77,2.22,1.68,4.39,3.41,6.63,5.07.76.57,1.65.81,1.94-.49C214,48.52,214.37,46.35,214.9,43.74ZM128,68.67h.11c0,1.45,0,2.91,0,4.37,0,.83.56,1.36,1.15.91,1.26-.94,2.81-1.09,4.17-1.75s2.89-1.67,4.67-1.8c1-.08,1.73-1.2,2.94-1.07.37,0,.19-.48.19-.82,0-1.51-.93-2.78-1-4.28a25.91,25.91,0,0,0-.78-3.74c-.18-.86-.58-1.38-1.53-1-2.87,1.18-5.75,2.32-8.7,3.29A1.7,1.7,0,0,0,128,64.63C128,66,128,67.32,128,68.67ZM71.57,81.92l.71-.76c1.3-1.32,3.65-2,3-4.57,0-.06.29-.17.39-.3,1.13-1.32.85-2.67-.93-2.93-1.57-.22-2.31-1.24-3.26-2.11-1.36-1.24-2.5-1.19-2.8.55s-1.47,2.78-2.53,4c-.24.26-.71.53-.44,1s.71-.44,1,.2c-1.14,1.23-2.48,2.26-3.63,3.5a1.73,1.73,0,0,0,.16,2.88c.91.7,1.63,1.55,2.47,2.3.66.59,1.27,1.26,2.38,1a1.11,1.11,0,0,1,1.34,1c0,.29.08.6.46.54s.75-.36.61-.68c-.51-1.09.33-1.57.89-2.13a7.16,7.16,0,0,0,1.45-2.65C73.29,81.52,72.75,81.53,71.57,81.92ZM126.41,65.1c.47-1.11.28-1-.72-.91-2.81.39-5.42,1.54-8.24,1.88a2.22,2.22,0,0,0-1.86,2.14,60.74,60.74,0,0,1-1.26,7.94c-.13.66-.2,1.92.86,1.47,1.83-.8,3.83-.92,5.7-1.5,1-.33,2.22-1.21,3.63-.79.43.13,1.32-.46,2.06-.5-.22-1.2.38-2.44.15-3.51C126.29,69.18,127,67.05,126.41,65.1Zm31-5c.1,0,.27-.08.42-.15,3.48-1.67,6.34-4.29,9.58-6.32,1-.59.82-1.37.11-2.13l-4.89-5.21c-.63-.67-1.19-.34-1.8.07q-3.59,2.41-7.22,4.78c-.65.42-.94.82-.57,1.66a72.33,72.33,0,0,0,3.41,6.61A1.07,1.07,0,0,0,157.38,60.07ZM68.72,68.86c-.29-.37-.48-.65-.7-.9-1.13-1.23-2.48-2.25-3-4-.21-.77-.58-1.31-1.75-.58a19.12,19.12,0,0,0-4.76,4.91c-1,1.33-1.74,2.92-3,4s-1.1,2-.08,3l4.38,4.49c.24.24.24.88.84.52.43-.25,1.17-.53,1-1-.48-1.43.67-1.85,1.33-2.6.94-1.06,1.87-2.13,2.79-3.2a2.84,2.84,0,0,0,.36-.7c-1.86-1.06.2-1.16.46-1.54A21.62,21.62,0,0,1,68.72,68.86ZM100.9,79c1.49.09,2.94-.74,3.77-.54,2.25.56,4.28-.29,6.41-.26a1.66,1.66,0,0,0,1.57-2,7.09,7.09,0,0,1,.3-2.78A54.48,54.48,0,0,0,114,68c.19-.81-.15-1.28-1.13-1.16-2.29.3-4.58.57-6.88.79-1.36.12-1.85.86-2.21,2.12-.61,2.14-.73,4.42-2,6.37C101.28,77,102.13,78.21,100.9,79Zm68.94-27.78a3.23,3.23,0,0,0,.78-.38c2.49-2,5-4.11,7.47-6.16.78-.64.64-1.08-.06-1.75-1.94-1.87-4.59-2.71-6.48-4.64-.42-.43-.94-.24-1.38.13-1.95,1.64-3.9,3.28-5.86,4.9a1.44,1.44,0,0,0-.22,2.34c1.52,1.69,3,3.37,4.56,5A1.5,1.5,0,0,0,169.84,51.23ZM98,78.68c1.45.07,2-1,2.15-2.15.15-.9,0-2.26.36-2.66,1-1.17.57-2.79,1.55-3.9.38-.43.08-1.18.49-1.74a.48.48,0,0,0-.53-.75c-1.92.56-3.65-.43-5.47-.58-1.4-.1-2.87-.26-3.12,1.94S91,72.75,91,75.18c0,.25-.16.36-.41.45-1,.31-.8,1.2-.65,1.84s.89.84,1.52.84C93.62,78.31,95.75,78.87,98,78.68ZM79.2,75c1.25-.73,1.74.43,2.42.32,1.83-.28,3.07,1,4.53,1.57,1,.39,1.4.61,2-.47,1.38-2.68,2-5.73,3.91-8.16.54-.68-.29-2.74-.58-2.46-.72.67-1-.13-1.24-.32-1.15-.86-2.63-.81-3.84-1.55-.6-.36-1.48-.23-1.53.92A2.26,2.26,0,0,1,84,66.48c-1.78,1.44-1.32,4.31-3.52,5.47-.08,0-.16.25-.13.29C81.24,73.4,79.83,73.71,79.2,75ZM201.14,34.75c.05-.82-.45-1.17-1-1.47-2.77-1.42-5.55-2.84-8.31-4.28a1.31,1.31,0,0,0-2,.63,26.06,26.06,0,0,0-1.74,4.24,1.22,1.22,0,0,0,.64,1.57c2.51,1.54,5,3.13,7.51,4.66a13,13,0,0,0,1.87.81c.47.19.91.22,1.11-.36C199.86,38.62,200.5,36.68,201.14,34.75ZM77.78,73.47c.32,0,.6-.17.48-.38-.76-1.39.75-1.71,1.17-2.53.33-.64,1.29-1.22,1.23-1.75A2.73,2.73,0,0,1,82,66.27c1.12-.9.1-2.65,1.5-3.43.22-.12-.3-.52-.49-.78-1.11-1.46-3.22-1.39-4.37-2.86-.32-.4-.93-.05-1,.47-.37,2-2.07,2.9-3.23,4.25-.4.46-1.28,1-1,1.43.7,1.18-.26,1.36-.79,1.9s-1.43,1.1-.94,1.71c.7.86,1.34,2.1,2.76,2a2.12,2.12,0,0,1,1.7.91C76.59,72.49,77.23,73,77.78,73.47Zm99.75-42.56a1.86,1.86,0,0,0-1.62.81c-1.13,1.41-2.24,2.84-3.39,4.25-.64.79-.35,1.29.38,1.79,1.9,1.32,3.86,2.59,5.66,4,1.17,1,1.8.69,2.58-.43,1.07-1.52,2.24-3,3.43-4.43,1.5-1.82,1.52-1.79-.74-2.76-.41-.18-.77-.46-1.17-.67Zm-49.59,26.3c0,1,0,1.92,0,2.88-.07,1.23.47,1.58,1.54,1.11,2.68-1.18,5.6-1.73,8.11-3.35.57-.36.83-.54.65-1.26-.45-1.85-.78-3.73-1.19-5.59-.17-.79-.7-.71-1.32-.51-1.44.47-2.78,1.19-4.28,1.53C128.72,52.65,126.86,54,127.94,57.21ZM138.53,51a32.94,32.94,0,0,1,1.11,4.31c.19,1.46.82,1.42,1.81.91,2.64-1.38,5.27-2.78,7.92-4.16.62-.33.64-.78.52-1.42-.29-1.54-1.45-2.53-2.18-3.79-.92-1.6-1.59-1.84-3.15-.83a31.65,31.65,0,0,1-3.39,1.83C140,48.4,138.41,48.88,138.53,51Zm-65.8,1.09a1.91,1.91,0,0,1-.46,1.74c-1.93,2.27-4.4,4-6.37,6.18-.68.77-.71,1.23,0,1.76a5.63,5.63,0,0,1,2.16,2.83c.08,1.42,1,1.73,1.79,2.52-.15-1,.6-1.37,1-2,1.28-1.68,3.7-2.62,3.49-5.28,2.19-1,2.3-2.35,1.21-4.43A8.4,8.4,0,0,0,72.73,52.07Zm53.84,5.63c-.09-.49-.2-1-.27-1.5-.31-2.36-.36-2.38-2.67-1.6a14.12,14.12,0,0,1-3.42,1c-1.75.13-2.68.77-2.92,2.44s-.46,3.48-.86,5.18c-.26,1.13.27,1.24,1.12,1.33s1.43-.71,2.23-.71c1.94,0,3.69-1,5.6-1.15a1.16,1.16,0,0,0,1.11-1.44A7.75,7.75,0,0,1,126.57,57.7Zm34-13.48a3.24,3.24,0,0,0-.42-.56c-1.14-1.09-2.32-2.14-3.44-3.26a2,2,0,0,0-2.87-.26c-1.57,1.08-2.94,2.47-4.75,3.23-.62.26-.54.84-.45,1.46.27,1.86,1.87,3,2.5,4.57.36.94.82.81,1.55.52,2.85-1.11,4.8-3.6,7.55-4.85C160.5,45,160.61,44.67,160.56,44.22ZM113.87,56.51c-1.51.14-3.07.28-4.64.44a1.75,1.75,0,0,0-1.57,1.37,46.36,46.36,0,0,1-2.14,6.13c-.17.41-.51,1.5.55,1.37,2.53-.29,5.1,0,7.6-.64.64-.16.85-.36,1-1.07.45-2.31.73-4.64,1-7,.08-.59-.1-.76-.58-.7S114.35,56.8,113.87,56.51ZM70.43,44.16l-1,.74c-1.9,1.48-3.47,3.32-5.78,4.36-2.07.94-1.81,1.54-1.37,4,.24,1.3,1.09,2.28,1.17,3.59s.62,1.54,1.59.53c2.17-2.23,4.39-4.42,6.57-6.64.28-.28.7-.8.46-1-1.07-.95-.89-2.28-1.32-3.42A2.67,2.67,0,0,1,70.43,44.16Zm30.11,12.3a1.31,1.31,0,0,0-1.78,1.06A21.3,21.3,0,0,1,96,63.05c-.89,1.37-.94,1.74.63,2.06,2,.4,4,.52,6,.76.8.09,1.15-.43,1.25-1.09a12.24,12.24,0,0,1,1.5-4.68c.45-.71-.06-1.73.71-2.5.39-.39-.25-.58-.65-.62ZM162.8,33.12c-.41,0-.66.36-1,.63-1.28,1.19-2.52,2.44-3.85,3.58-1,.84-.77,1.59.07,2.24a21.68,21.68,0,0,1,3,3,1.14,1.14,0,0,0,1.87.14c1.8-1.55,3.64-3.06,5.45-4.6.43-.37.68-.87.27-1.34C167.12,34.91,164.88,34.18,162.8,33.12ZM97.34,55.92c0-.24-.11-.66-.51-.58-1.1.21-1.77-.61-2.65-.9-1.3-.43-2.82-1-3.22,1.22a1.43,1.43,0,0,1-.39.55,20.52,20.52,0,0,0-3.33,5.19c-.36.74,0,1.3.49,1.31,1.88.06,3.29,1.29,5,1.79.36.11.8.34,1-.22A38.11,38.11,0,0,1,96.82,58,8,8,0,0,0,97.34,55.92Zm91.71-27.31a1.24,1.24,0,0,0-1-1.24l-7.16-2.52c-.36-.12-.85-.5-1.07-.08-.72,1.45-1.8,2.75-2,4.45a.81.81,0,0,0,.51.81,72,72,0,0,0,7.28,3.55c.38.14.8.28,1.09-.1C187.92,32,188.19,30.07,189.05,28.61Zm-99,24.65c.1-.57-.22-.73-.53-.88a11.38,11.38,0,0,1-2.31-1.72c-1-.8-1.75-.8-2.18.52a3.65,3.65,0,0,1-1.15,1.43c-1.32,1.32-2.6,2.67-3.89,4-.38.39-.75.9-.07,1.24a30.23,30.23,0,0,1,4.1,3c.84.6,1.32.4,1.56-.57A5.85,5.85,0,0,1,87.88,57C89.16,56,89.08,54.25,90.1,53.26Zm85.1-22.95c0-.41-.33-.57-.65-.71-1.76-.73-3.53-1.48-5.3-2.18a1.5,1.5,0,0,0-1.71.43l-2.73,2.8c-.9.92-.83,1.66.38,2.23a16.11,16.11,0,0,1,3.59,2.24,2.12,2.12,0,0,0,1.89.56,33.93,33.93,0,0,0,4.52-5.2C175.19,30.42,175.2,30.36,175.2,30.31ZM63.68,43.88C64.81,45.09,65.52,46,66.93,45c2.3-1.68,2.91-4,3.15-6.63,0-.5,0-1,0-1.52,0-.27,0-.57-.33-.68-.81-.24-4.08,1.3-4,2.11.07,1.42-.64.79-1.55.46.45.55.69.78.86,1.05s.66.52.36,1c-.43,0-.59-.32-.83-.54-1-.92-3.33-.5-3.31.72,0,1.71-.81,3.75,1,5.16.15.11.21.27,0,.47L61,46.1c.82.78.53,1.45.36,2.2C63.54,47.05,64.22,45.92,63.68,43.88ZM202.46,28.74c-.54,0-.74.31-.7.67.19,1.74.17,3.67,1.88,4.7,2.78,1.68,5.33,3.67,8,5.43a4.5,4.5,0,0,0,1.22.61c.66.19,1.06-.16.84-.81-.71-2.13-1.19-4.39-3.48-5.6a36.06,36.06,0,0,1-5.08-3.41A24.5,24.5,0,0,0,202.46,28.74ZM128.74,51.51a4,4,0,0,0,1-.15c2-.78,3.78-1.88,5.88-2.32.61-.13.73-.54.49-1.18a14.78,14.78,0,0,1-1-3.5c-.16-1.57-1-1.53-2-1A20.9,20.9,0,0,1,128.67,45c-.7.2-1,.47-.95,1.3a14.86,14.86,0,0,1,0,4.05C127.57,51.42,127.88,51.54,128.74,51.51ZM82.59,44.36a22.51,22.51,0,0,0-4.83,4.17c-.88,1-1.58,2.25-3.25,2.13.88,2,2.82,3,3.6,4.84a.44.44,0,0,0,.73.12c.86-.82,2.13-1.58,2.21-2.7a2.62,2.62,0,0,1,1.43-2.2,5.43,5.43,0,0,0,1.82-2.14c.36-.9-.92-1.14-1.27-1.81S81.47,45.5,82.59,44.36Zm107.77-19.6c0,1.13-.08,2.32,1.19,3l8.18,4.16c.43.21.88.33,1.16-.24.44-.91-.65-4.52-1.55-4.95-2.35-1.15-4.7-2.28-7.08-3.33C190.47,22.57,190.26,22.77,190.36,24.76Zm-53,21c-.62,1,.18,1.39.61,1.8.6.55,1-.28,1.45-.44,2.08-.69,3.69-2.28,5.79-2.92.37-.12.74-.43.47-.7-1-1-1-2.41-1.76-3.46-.58-.78-1.22-.73-2.2-.59-1.95.28-3,2.25-5,2.34-.46,0-.44.48-.38.94A8.85,8.85,0,0,0,137.34,45.75Zm-11.21,3c.09-2.59.09-2.59-2.28-2.27a4.23,4.23,0,0,0-.5,0c-2.55.54-4.9,1.27-4.79,4.6a3.83,3.83,0,0,1-.28,1.65c-.56,1.26.14,1.46,1.07,1.29,1.89-.36,3.77-.78,5.62-1.28.57-.15,1.43-.68,1.17-1.25C125.66,50.46,126.46,49.53,126.13,48.73Zm-51.71-2.3c-.11.85-1.43,1.23-.79,1.76s1.08-.57,1.61-1,1.19-1.47,1.67-1.41c1.9.24,2.39-1.47,3.54-2.22.41-.27.06-.75.14-1,.37-1.28-.85-2.17-.71-3.26.16-1.25-.22-1-1.1-.77-1.93.56-3.24,2-4.7,3.2-.94.79-2.93,1.19-1.33,3.1,0,0-.1.21-.1.31C72.67,46.28,73.07,47,74.42,46.43Zm37.47,8.83c2.55,0,3.23-.63,4.3-2,.82-1.09.65-2.31,1.12-3.43.57-1.36-.09-1.92-1.67-1.84-1,.05-2,.17-3,.2a1.66,1.66,0,0,0-1.53,1c-.82,1.38-.91,3-1.71,4.38-.69,1.2-.1,1.77,1.36,1.63A5.87,5.87,0,0,1,111.89,55.26Zm41.93-17.19c0-1.08-3.28-3.73-4.25-3.54a.47.47,0,0,0-.16,0A18.75,18.75,0,0,0,144.64,38c-.68.61,1.18,2.06,1.48,3.32a2,2,0,0,0,.46.71,1,1,0,0,0,1.21.32c2.32-.69,4-2.33,5.75-3.85A1.38,1.38,0,0,0,153.82,38.07Zm-48.73,9.75c-.56-.2-.84.08-1.18.45-1.4,1.51-1.66,3.68-3.13,5.17-.52.53-.11,1.32.82,1.41a26.2,26.2,0,0,1,4.18.42c1.09.28,1.53-.31,1.56-1a5.4,5.4,0,0,1,1-2.25,17.78,17.78,0,0,0,1-2.87c.19-.63-.15-1-.77-1C107.41,48,106.23,47.93,105.09,47.82ZM172,21.89c-1.09-.09-1-.06-2.42,2.19-.77,1.23-.53,2,.73,2.54a28.67,28.67,0,0,0,5.39,2c.34.08.74.22.93-.14A37.91,37.91,0,0,0,178.32,25a1.1,1.1,0,0,0-.79-1.48C175.63,22.92,173.72,22.39,172,21.89Zm-15.84,7.58a.87.87,0,0,0-.47.09A20.91,20.91,0,0,0,152,33a.59.59,0,0,0,0,.79c1.09,1.06,2.17,2.14,3.34,3.12.42.35,1,.08,1.39-.29l4.12-3.8c.33-.32.73-.92.23-1.13C159.45,31.07,158.16,29.73,156.16,29.47ZM79.47,32.94c-.61-.5.11-1.48-.49-1.81s-1.09.42-1.64.68c-1.36.65-2.66,1.46-4,2.08a2.17,2.17,0,0,0-1.42,1.89,17.7,17.7,0,0,0,0,3.85c.07.88.39,1.33,1.36.52C74.7,39,75.94,37.43,77.82,37c1.23-.31,1.4-1.21,1.48-2.16C79.35,34.21,79,33.6,79.47,32.94Zm19,13c-.68-.22-1,.28-1.37.73-1,1.39-1.59,3.13-3,4.31-.41.36-.23.82.06,1.23,1,1.39,2.66,1.41,4.06,1.78,1,.27.4-1.22,1-1.65.22-.15.35-.44.55-.64A12,12,0,0,0,102,48.08c.25-.55.31-1-.35-1.22A13.93,13.93,0,0,0,98.46,46Zm-7,5.12c.43,0,.71-.05.86-.32a31.14,31.14,0,0,1,3.9-5.57c.28-.32.23-.77-.22-.7-1.08.18-1.45-.69-2-1.23-.73-.68-1.33-.75-2,0-1.29,1.36-2.6,2.69-3.9,4-.41.42-.76.82-.3,1.47C88.69,50.12,90.25,50.41,91.44,51.1Zm88.77-29.59c-.08.72-.14,1.61.88,2,2.25.89,4.51,1.76,6.79,2.59a1,1,0,0,0,1.36-.31c.66-1.07-.45-4-1.7-4.42l-5-1.7C180.73,19.05,180.18,19.45,180.21,21.51Zm-13.84,5.6a1.27,1.27,0,0,0-1.08-1.18c-1.24-.4-2.5-.75-3.7-1.27a1.49,1.49,0,0,0-1.91.52C157,28,156.94,28,160.24,30a1.64,1.64,0,0,0,.29.16c.82.31,1.65,1.15,2.51.36C164.25,29.46,165.32,28.21,166.37,27.11ZM90.42,180.75c.12,1.59,1.27,2.69,1.43,4.18a.39.39,0,0,0,.75.15c.44-.72.86-1.3,1.66-.44.45.49,1.46.61,1.16,1.69-.62-.08-1.66-.56-1.77.16-.21,1.33-1.08,1-1.86,1.26A2.49,2.49,0,0,0,90,190.21c0,.58-.3,1.53.44,1.62a2.45,2.45,0,0,0,2.44-1.24c.49-.87,1.36-.6,2.12-.61-.17-.74-1.14-.84-.91-1.69a1.55,1.55,0,0,1,1.09.39c.39.26.8.51,1.24.15s-.07-.64-.19-1c-.2-.58.11-.82.7-.8,1.45,0,.78-1.06.83-1.7.07-.94-.51-.77-1.11-.53s-.89-.24-1.28-.59c-.86-.77-2-2.36-2.44-2.25C91.58,182.3,91.1,181.63,90.42,180.75ZM90,38.46a23.16,23.16,0,0,0-3.82,2.18c-2.8,1.8-2.85,2.47-1.46,4.92.66,1.17,1.39,1.4,2.37.38s2-2.2,3.08-3.17,1.74-1.89.22-2.93C89.74,39.43,90.47,38.87,90,38.46ZM72.47,32.59l2.33-1.83c.24-.19.34-.51.82-.43,1.66.25,2.63-1.43,4.16-1.61.08,0,.22-.2.2-.24-.75-1.51,1.54-2.33.9-3.85-.06-.14.67-.57.19-.94s-.8.1-1.12.42c-1,1-2.86.28-3.57,1.82-.13-.08-.3-.14-.37-.26-.37-.63-.82-.33-1.08,0s-1.18.74-.73,1.35c.58.8,0,1.1-.37,1.57s-.91.59-.54,1.09.76-.49,1.35-.25C74.28,30.65,72.53,30.69,72.47,32.59Zm48.78,13c1.31-.32,2.61-.63,3.93-.93a.93.93,0,0,0,.75-1c.06-1.17.15-2.33.2-3.5,0-.66-.33-1-.95-.82-1.48.36-3.12.47-4.33,1.25-.77.5-.62,2.06-.65,3.19a.69.69,0,0,1-.08.32C119.44,45.41,120.17,45.56,121.25,45.57Zm50-26.47c0,.66-.21,1.4.73,1.66,1.85.52,3.69,1.09,5.54,1.6.53.14,1.11.31,1.48-.38a2.56,2.56,0,0,0-1.9-3.85,31.26,31.26,0,0,1-3.48-.77C171.61,16.84,171.34,17,171.28,19.1ZM127.47,41.92c-.07,1,.81,2,1.5,1.57a10.26,10.26,0,0,1,2.51-.92c2.29-.76,2.34-.9,2.06-3.28,0-.11.06-.24,0-.34-.29-1-.33-2-2.07-1.49C127.74,38.55,127.7,38.41,127.47,41.92Zm8.77-1.66c1.72-.09,2.61-1.61,4.15-1.78,1.16-.12,1.46-.95,1.11-2-.51-1.55-1.89-2.73-2.75-2.36-1.08.47-2.16,1-3.2,1.54s-.94,3.88,0,4.44A2,2,0,0,0,136.24,40.26ZM115,46.42v-.05c.62,0,1.24.05,1.86,0a1.27,1.27,0,0,0,1.33-1.25,10.75,10.75,0,0,1,.63-3.63c.21-.5,0-.71-.52-.82a4,4,0,0,0-4.93,2.9,6.42,6.42,0,0,1-.65,1.17c-.24.43-.7.82-.27,1.37a1.24,1.24,0,0,0,1.37.4A9.11,9.11,0,0,1,115,46.42Zm110.78,5.49.41-.28c-1.19-1.41-1.33-3.36-2.64-4.69-2.34-2.39-4.73-4.76-7.1-7.13a3.33,3.33,0,0,0-.64-.55.72.72,0,0,0-.61-.08c-.14.1-.26.5-.19.59.8.93.62,2.35,1.46,3.18C219.57,46,222.71,48.93,225.82,51.91ZM82.49,41.25a1.5,1.5,0,0,0,.32-.1c1.83-1.3,3-3.36,5.18-4.34a1.91,1.91,0,0,0,.3-2.24c-.43-.65-.66-1.14-1.82-.71-1.84.68-3.21,2.16-5.09,2.71a.4.4,0,0,0-.16.69C82.53,38.32,81.65,40.05,82.49,41.25ZM163.74,20c-.09,0-.37-.06-.52.06a3.88,3.88,0,0,0-1.68,2.62c-.08.85.89,1,1.57,1.28.43.15.87.26,1.28.43,2.93,1.19,3.08,1.12,4.62-1.48.57-1,.46-1.6-.68-1.87C166.85,20.67,165.36,20.36,163.74,20ZM87.82,27.17c-1,.06-1.33,1.24-2.21,1.12-1.06-.14-1.72,1-2.31,1-2-.16-2.19.9-2.3,2.35,0,.45.37.77.19,1.29-.49,1.45.27,1.34,1.33,1,1.38-.37,2.14-1.82,3.39-2.11,1.47-.34,1.71-1.28,1.89-2.38A16,16,0,0,0,87.82,27.17Zm20.12,19.27c.74-.5,2.08,1,2.66-.62.32-.91.8-1.74,1.16-2.6.26-.64,1.23-1.82-.28-2.41a3.09,3.09,0,0,0-4.2,1.61c-.24.45-.49.9-.77,1.32C104.88,46.22,104.88,46.22,107.94,46.44ZM148.79,32.8c-1-.83-2-1.7-3.06-2.43-.71-.49-1.23.18-1.77.58-3.81,2.81-3,1.64-1.24,4.91a1,1,0,0,0,1.43.45c1.62-.62,2.83-1.85,4.22-2.81C148.53,33.39,148.59,33.14,148.79,32.8Zm1.8-6.49c-.33.18-.63.33-.91.51-3.29,2.14-3.29,2.37-.23,4.75a1.37,1.37,0,0,0,2,0c.86-.73,1.71-1.49,2.56-2.25.36-.32.7-.81.19-1.13C153,27.52,151.81,27,150.59,26.31Zm-48.18,19.1a4.12,4.12,0,0,0,.7-.14c.91-.35,3.21-4,3.07-4.9a1,1,0,0,0-.37-.52,2.35,2.35,0,0,0-3.57.37c-.69.89-1.21,1.92-1.94,2.77-1,1.15-.47,1.68.66,2C101.44,45.2,102,45.3,102.41,45.41ZM76.22,23.74l1.94-1.57c1.08,1.38,1.42-.12,2-.54.38-.29.64-.38,1-.06a.73.73,0,0,0,1.06-.16c.89-.95,1.78-1.9,2.61-2.9a1,1,0,0,0-.12-1.39c-.43-.48-.82-.17-1.21,0s-1,.73-1.13.62c-1.53-1-2.05.5-2.77,1.12a22.28,22.28,0,0,0-2.8,3.17C76.52,22.46,75.91,22.79,76.22,23.74ZM97.6,43.2c.67,0,.83-.48,1.07-.85A18.23,18.23,0,0,1,101,39c.35-.33.86-.75.46-1.3A1.62,1.62,0,0,0,99.81,37c-2.4.33-3.63,2.32-5.29,3.69-.13.11-.1.41-.14.62C95.72,41.52,96.51,42.71,97.6,43.2Zm57-20.7c-1.51-.06-1.92,1.19-2.66,2a.73.73,0,0,0,.06,1.08,5.78,5.78,0,0,0,4,1.56c1.21-.13,1.88-1.68,2.73-2.66.33-.38-.05-.74-.48-.87C157,23.2,155.71,22.84,154.55,22.5ZM81.85,28a9.77,9.77,0,0,1,2.64-1.38c2.11-.28,3.2-1.76,4.38-3.21.47-.59.37-.8-.29-1.37-1.06-.9-1.63.26-2.45.25a3.12,3.12,0,0,0-3.08,2C82.58,25.45,82.49,26.61,81.85,28Zm86.81-8.16c1,.31,1.49,0,1.64-1.17s-.05-2-1.27-2.17-2.58-.34-3.85-.58c-.8-.15-1.49-.22-1.67.81s-.23,2,.94,2.19C165.85,19.18,167.12,19.93,168.66,19.86ZM96.83,33.23a19.76,19.76,0,0,0-5.16,3.41,7.8,7.8,0,0,0,1.34,3,.93.93,0,0,0,.6-.25c1.36-1.34,2.73-2.69,4-4.08a1.06,1.06,0,0,0,.07-1.41C97.5,33.61,97.29,33.26,96.83,33.23Zm-1-2.37c0-1.54-.61-1.79-1.85-1.34-1.08.39-1.72,1.64-2.89,1.65s-1.35.47-1.47,1.37a3.79,3.79,0,0,0,1,2.55c.21.32,1.06-.63,1.52-1.07a5.82,5.82,0,0,1,2-1.11C95.09,32.52,96,32,95.79,30.86ZM178.88,15c.37,1.38.8,2.46,1.8,2.89,1.88.79,3.86,1.34,5.8,1.95a1,1,0,0,0,.79-.12c.26-.23,0-.49-.14-.74a4.29,4.29,0,0,0-2.89-2.46C182.59,16,180.89,15.6,178.88,15ZM125.84,35c.34-.58.36-1-.39-1.15a3.41,3.41,0,0,0-3.62,1.9c-.32.89-.91,2-.36,2.72s1.68,0,2.55-.19c1.64-.28,2.38-1.12,1.83-2.82A1.43,1.43,0,0,1,125.84,35ZM159.23,22.6c.91,0,1.15-.62,1.47-1.23.94-1.78,1-1.8-1-2.2-.94-.18-1.89-.31-2.84-.4-1.2-.1-1.63.84-2,1.71-.25.52,0,.87.54,1C156.63,21.88,157.93,22.24,159.23,22.6ZM156.8,233.19c.83,1,1.53,2.07.19,3.29-.47.42.13.8.35,1.16a.5.5,0,0,0,.71.19,1.91,1.91,0,0,0,1-2.86,1.74,1.74,0,0,1-.07-1.84c.45-1.27,1.72-2.49.55-4.06-.11-.15-.78-1.59.74-1.48.48,0,.32-.37.14-.59a1.15,1.15,0,0,0-1-.49,1,1,0,0,0-.92.86,9.15,9.15,0,0,0-.22,3.14c.29,1.15-.22,1.21-1,1.16-.15.77,1,.79.69,1.48C157.54,233.47,157.25,232.63,156.8,233.19ZM127.37,34.61c.07.55.16,1.11.21,1.67.09.84.63.91,1.21.6a9.12,9.12,0,0,1,2.68-1,.81.81,0,0,0,.73-1,3.69,3.69,0,0,0-.93-2.64c-.69-.67-1.21.31-1.84.31C128.09,32.62,127.22,33.07,127.37,34.61Zm9.2-4.75a7.26,7.26,0,0,0-3.27,1.2.84.84,0,0,0-.39,1c.68,2.92.66,2.92,3.34,1.63a7.41,7.41,0,0,1,.8-.25c.56-.18,1.52-.24,1.14-1.06S137.46,30.29,136.57,29.86Zm35.48-16.44c-1.26-.16-1.46.27-1.23,1.07a2.35,2.35,0,0,0,1.78,1.66c1.37.34,2.77.61,4.15.89.44.08,1.13.18,1.07-.41-.08-.9-.1-2-1.29-2.34C174.94,13.91,173.31,13.66,172.05,13.42ZM120.24,35.9c.08-.64.15-1.18-.36-1.17-1.12,0-2.35-.36-3.19.9a8.56,8.56,0,0,0-.83,2.33c-.14.44-.9.77-.52,1.28s.94,0,1.43,0a15.89,15.89,0,0,0,1.69,0c.45,0,1-.07,1.09-.6C119.67,37.58,120.36,36.71,120.24,35.9ZM94.07,25c-1.53,0-2.81.82-4.1,1.41-1,.43-.87,1.9-.61,2.79s1.16,0,1.74-.06c1.33-.1,2.29-1.17,3.31-1.93a2,2,0,0,0,.66-1.84C95,24.86,94.46,25,94.07,25Zm49.45,4.23A6,6,0,0,0,141.13,27c-.62,0-3,1.62-2.88,2,.35,1,.56,2.17,1.72,2.55C140.72,31.83,143.46,29.92,143.52,29.23ZM145,23.94c-1.08,0-2.83,1.76-2.42,2.28.7.88,1.68,1.89,2.74,1.77a4.76,4.76,0,0,0,3.15-2.12.48.48,0,0,0-.27-.7C147.07,24.72,146,24.32,145,23.94ZM245,89.59l-.51.2c.31,1.63.28,3.3.65,4.94.62,2.82,1.77,5.49,2.2,8.36.07.46.12,1.19.83,1s.48-.73.34-1.25c-.84-3.13-1.83-6.23-2.47-9.42C245.81,92.16,245.38,90.88,245,89.59ZM111.25,39.18c2.53.1,3-1.37,3.46-2.73.18-.54.59-1.28-.1-1.71a1.84,1.84,0,0,0-2.1.07,6.11,6.11,0,0,0-1.81,2.68C109.88,39.25,110.43,39.3,111.25,39.18ZM211.6,210.58c.17-.52-.75-.9.11-1.68s-.19-1.9-1-2.52c-.57-.42-.92.26-1.28.56s-.8,1.24-1.62.95-1.15.22-1.39.8a1.09,1.09,0,0,0,.4,1.36c.6.4,1,0,1.48-.41s1.15-.88,1.31,0C209.84,211.1,210.76,210.57,211.6,210.58ZM85.48,21c1.25-.83,2.58-.63,3.5-1.16a9.66,9.66,0,0,0,3-2.9c.16-.23.43-.45.28-.75s-.46-.14-.74-.11c-1.82.2-3.82-.08-4.51,2.41C86.81,19.22,85.76,19.65,85.48,21Zm5.1,1.92c0,1.38.3,1.57,1.37,1a3.88,3.88,0,0,1,1.59-.49c1-.1,3.1-2.12,2.76-2.63-.77-1.18-1.8-.26-2.73-.13-.28,0-.57,0-.85,0C91.2,20.74,90.89,21.9,90.58,22.88ZM107,38.51c.61,0,1.35,0,1.34-.55,0-1.27,1-1.84,1.55-2.68.29-.41,1-.8.29-1.41-.54-.47-1.15-.79-1.8-.18s-1.59,1.46-2.29,2.26c-.39.44-1.27.84-1,1.44A2.6,2.6,0,0,0,107,38.51Zm61.3-23.1c.49-.1,1,.08,1.29-.4s-.05-1-.31-1.42a1.91,1.91,0,0,0-1.58-.87c-1.07-.08-2.14-.13-3.22-.15-.48,0-1.13-.07-1.19.63a1.2,1.2,0,0,0,.91,1.43C165.55,14.92,166.94,15.16,168.27,15.41Zm-20,5.51a2,2,0,0,0-2.25,1.54c-.23.93.87.78,1.42,1.06a8.42,8.42,0,0,0,1.86.8c1.38.31,1.81-.9,2.4-1.73.34-.49-.07-.87-.56-1C150.15,21.32,149.1,21.1,148.32,20.92Zm10.5-5.56c-.64,0-1.1,0-1.55,0-.69.06-.68.65-.78,1.14s-.15.94.35,1c1.46.14,2.84.82,4.34.65a1.25,1.25,0,0,0,1.18-1.41c0-.78-.47-1.1-1.18-1.17ZM100,33.6a11.46,11.46,0,0,0,3.57-2.67c.4-.48.91-.94.24-1.59s-1.09-.38-1.65.06A7.11,7.11,0,0,1,99.42,31c-.47.12-1.33.31-1,1S99.15,33.52,100,33.6Zm6.9-1.05c0-.38-.42-.63-.78-.9a.86.86,0,0,0-1.21.11l-2.82,2.67c-.31.3-.85.58-.46,1.1a1.91,1.91,0,0,0,1.32.95C103.5,36.51,106.83,33.26,106.89,32.55Zm82-14.1c.81,2.54,5,5.22,7.92,5.42C195.17,20.58,191.66,20.49,188.89,18.45ZM59.25,42a2.89,2.89,0,0,0-.6.22c-1.81,1.29-3,3.39-5.34,4-.87.24-.1.77.1,1.17.5,1,.89,1,1.45,0,.76-1.37,1-1.36,1.93-.14.33.45.58.18.82,0a2,2,0,0,0,.45-2.46c-.6-.9-.16-1.17.35-1.64C58.72,42.87,59.28,42.78,59.25,42ZM92.74,18.66c1.66.23,3-.3,4.44-.45a1.85,1.85,0,0,0,1.53-2c-.11-1-1.07-.63-1.78-.67C94.7,15.46,93.94,17.18,92.74,18.66Zm8.4,7.58a2,2,0,0,0-1.54.49,3.36,3.36,0,0,1-2.07,1c-.55,0-1.14.25-.77.91S97,30.23,98,29.94a6.82,6.82,0,0,0,4-2.56C102.56,26.62,102.42,26.07,101.14,26.24Zm-10.6-15c-3.57-.78-4.59,2.36-7,4C86.83,15.05,88.34,14.14,90.54,11.19Zm11.32,12.28c0-.56-.2-1.16-.87-.86-1.14.49-2.36.69-3.51,1.1a1.23,1.23,0,0,0-.7,1.81c.36.81,1,.53,1.57.29,1-.42,1.8-1.34,3-1.38C101.82,24.41,101.87,23.88,101.86,23.47ZM90.63,14a5.13,5.13,0,0,0,6.61-3c-1.2.39-2.49-.33-3.53.75A6.45,6.45,0,0,1,90.63,14Zm68.63-1.73c-.75,0-1.26,0-1.77,0s-1,.14-1.12.8.42.94,1,1a8.9,8.9,0,0,0,1.68.22c1-.1,2.68.94,2.79-.73C162,11.53,160.06,12.54,159.26,12.22ZM78.35,160.65c-2.07.84-1.65-.27-1.33-1.21a1,1,0,0,0-.49-1.28c-.39-.24-.83-.54-1.26-.29s0,.8,0,1.22a3.46,3.46,0,0,0,.21,1.48c.15.46-.18.89-.63.45-.61-.59-.85-.24-1.16.22a.79.79,0,0,0,.1,1.08c.47.49.85.27,1.34,0s.78-1.11,1.17-.79C77.32,162.37,77.59,161.4,78.35,160.65ZM152.14,20.47a1.48,1.48,0,0,0,1.67-1.08.77.77,0,0,0-.64-1.14,8.65,8.65,0,0,0-3.51-.11,1,1,0,0,0-.83.93c-.07.53.38.56.72.75A8.57,8.57,0,0,0,152.14,20.47ZM124.07,32.63c1.09,0,2-.75,1.77-1.81-.14-.58.76-1.77-.57-1.89s-2.66,1.39-2.6,3C122.71,32.87,123.44,32.51,124.07,32.63Zm4.4-1.34c.88-.09,2.08-.27,2-1.26-.06-.61.48-2.16-1.13-2.13-1.23,0-2.19.29-2,1.93C127.33,30.71,127.25,31.44,128.47,31.29Zm3.09-3.36c.18.68-.09,2,.95,1.76s2.42-.53,2.67-1.55a2,2,0,0,0-1.74-2A1.74,1.74,0,0,0,131.56,27.93ZM81.86,141c-1.13-.07-2.26.48-2.36,1.41a2,2,0,0,0,1.94,1.73A2.37,2.37,0,0,0,83.37,142C83.53,141,82.59,141,81.86,141ZM121.79,30c0-.36-.25-.57-.53-.5-.6.14-1.41-.35-1.76.26a21,21,0,0,0-1.35,3.2c-.07.19.26.29.51.31A3.37,3.37,0,0,0,121.79,30Zm-6.32,3.25a7.34,7.34,0,0,0,2.22-3c.21-.43,0-.77-.47-.9-1.41-.39-1.84.79-2.47,1.59a5.81,5.81,0,0,0-.44,1.08C113.82,33.08,114.49,33.19,115.47,33.29ZM101.59,19.1c-1-.12-1.84.58-2.86.37-.54-.12-.64.68-.82,1.14a1,1,0,0,0,.25,1.09c.45.42.84.11,1.23-.12a2.71,2.71,0,0,1,1.86-.55c.84.11,1.46-.79,1.53-1.52S102,19.18,101.59,19.1ZM70,146.12c-.45.33-1.45.91-.86,1.26,1.76,1,2.42,4,5.32,3.13.42-.14,1,0,1-.62a.92.92,0,0,0-.94-1,3.8,3.8,0,0,1-2.36-.83c-.15.69.61,1,.22,1.81C71.54,148.58,69.68,148.22,70,146.12ZM163.76,9.57a8.06,8.06,0,0,0-.85,0c-.53,0-1.29-.23-1.39.53s.6,1,1.25,1.08c1,.12,2,.21,3,.31.35,0,.72.05.85-.35s-.13-.64-.35-.89C165.59,9.41,164.65,9.57,163.76,9.57ZM111.37,28.14c0-.48-.37-.61-.7-.42-1,.62-2.3.67-3.15,1.61-.3.33-.81.55-.43,1.09a1.56,1.56,0,0,0,1.24.8C108.81,31.23,111.37,28.61,111.37,28.14Zm28-2.08c0-.55-2.17-2-2.58-1.79-.62.3-1.61.58-1.5,1.36s.84,1.69,1.72,1.55A3.07,3.07,0,0,0,139.42,26.06ZM100.51,11.17c-1.46.15-2.07,1.49-3,2.44-.23.25.08.62.38.53,1.14-.37,2.63.21,3.39-1.27.21-.41,1-.61.68-1.2S101.1,11.3,100.51,11.17Zm-43.76,23c-2,.87-3,2.27-2.82,3.76-.29.25-.53-.08-.78-.06-.64,0-1.42.34-1.34,1s.67.11,1,0,.43.21.44.51,0,.9.35,1.14C55,38.5,55,36,56.75,34.15Zm95.66-18.9a3.14,3.14,0,0,0-2,.1A.62.62,0,0,0,150,16c0,.32.15.69.4.67,1.29-.11,2.5.64,3.8.36a1.09,1.09,0,0,0,.91-1.08c0-.68-.59-.53-1-.64A3.16,3.16,0,0,0,152.41,15.25Zm-68.87,169a3.67,3.67,0,0,0,2,1.75c1.28.46,0,1.71.29,2.66.65-.27,1.1-1,1.83-.22.49.53.9-.22,1.23-.52.64-.58-.23-.82-.37-1.24-.07-.2-.14-.44-.4-.34-.49.26-.06.81-.69,1.25C87.2,185.11,85.12,185,83.54,184.2Zm-31.6-66.61a15.66,15.66,0,0,0-1.76-2.22c-.9-1.17-2.39-.67-3.57-.68-.72,0-1,1.14-1,2.09.81-1.88,2-1.33,3.17-.62A10.86,10.86,0,0,0,51.94,117.59Zm28.59,35.46c-.13-2.59-2.9-2.23-3.54-4.06.12,1.38-.27,2.68.13,3.76C78.28,153.32,79.36,150.84,80.53,153.05ZM139.77,21.9c-.52.18-1,.33-1.22.85s.19.82.61,1.05a10.15,10.15,0,0,0,1.47.82c.87.29,1.31-.46,1.75-1s.11-.89-.4-1.05A8.23,8.23,0,0,1,139.77,21.9ZM100,183.36c0-.71-.76-1-.48-1.55.52-1-.28-1.21-.76-1.59s-.84.33-1.27.48-.48.67-1,.6-.53.09-.42.47.49.62.82.83.32,0,.48-.22c.47-.63.8-.63.87,0C98.41,183.56,99.16,183.38,100,183.36Zm14.24-154.2a2.44,2.44,0,0,0-.43-.55.58.58,0,0,0-.76.14c-.82.85-1.64,1.7-2.43,2.57a.59.59,0,0,0,.18,1c.37.22.8.62,1.22.24C113,31.62,113.13,30.11,114.23,29.16Zm50,196.27c-1.24.18-2,.09-2.49-.67-.37-.58-.78-.24-1.11.1s-.64.9-.16,1.16a4.9,4.9,0,0,1,2,2.45c.11.21.28.38.53.29s.39-.36.27-.55C162.57,227.18,163.09,226.41,164.19,225.43ZM102.75,15.37c-.78.12-1.83-.23-2,.82-.35,2,1,1.16,2,1.14s1.75-.35,1.75-1.16C104.44,15.21,103.34,15.59,102.75,15.37ZM97.62,174.68c-.23.6-1.11-.22-1,.59.06.36.62.92,1,.65.67-.45,1.11-.15,1.68.09a.82.82,0,0,0,1.13-.45c.13-.34.09-.88-.21-.88-1.43,0-2.27-1.35-3.62-1.75C96.59,173.9,97.27,174.16,97.62,174.68ZM152.71,13.84a3,3,0,0,0,.84.06c.52-.13,1.44.28,1.4-.7,0-.74-.65-.92-1.39-.81a26.58,26.58,0,0,1-2.68.15c-.43,0-.81.1-.84.61s.36.47.67.61C151.38,14.06,152.05,13.78,152.71,13.84Zm21.5-1.56c-1-1.6-2.58-1.51-4-1.84-.49-.13-1.28-.55-1.44.15s.59,1.17,1.3,1.27A15.17,15.17,0,0,0,174.21,12.28ZM160.85,230.15a2.1,2.1,0,0,0,2.63,1.77c.33,0,.77-.55.9.18.09.52.32.5.69.31s.75-.3.71-.82-.39-.45-.69-.6C163.76,230.31,162.31,230.41,160.85,230.15ZM159.73,10.83c-1-1.88-2.41-1.29-3.69-1.19-.41,0-1.06-.16-1.06.51s.56.84,1.07.91A11.11,11.11,0,0,0,159.73,10.83Zm-51.5,13.05c-.15-.44-.51-.32-.84-.35-1.15-.11-1.9,1-3,1-.49,0-1,.09-.67.78.21.45.39,1.07,1.07.79,1.19-.5,2-1.58,3.34-1.93C108.18,24.15,108.19,24,108.23,23.88Zm37-3.11c-.27-1-1.15-.77-1.8-.87s-1.55-.52-2.14.32a.5.5,0,0,0,.06.47A4.67,4.67,0,0,0,144,22C144.53,22,145,21.4,145.27,20.77ZM39.68,109.66a1.05,1.05,0,0,0,1-.65.7.7,0,0,0-.19-.92,1.08,1.08,0,0,0-1.85.18c-.56.78-.87,1.85-2.13.89-.07,0-.33,0-.43.14a.37.37,0,0,0,.06.59c.45.33.91.76,1.49.23S38.83,108.73,39.68,109.66ZM98.33,9.52A8.09,8.09,0,0,0,103,7.67a.83.83,0,0,0,.29-.56c0-.27-.3-.36-.51-.28C101.24,7.45,99.34,7.42,98.33,9.52ZM38.45,107.11a4.49,4.49,0,0,0,2.57-2.2c.25-.35,1.33,0,.81-.87-.36-.57-1-.35-1.67-.21C38.2,104.26,39.3,105.93,38.45,107.11ZM109.37,26a.74.74,0,0,0-.84-.33c-1.43.19-2.27,1.38-3.41,2.05-.28.16-.17.51,0,.75s.55.44.73.28a17.67,17.67,0,0,1,3.41-2.41C109.32,26.34,109.33,26.18,109.37,26ZM145,17.44v.07h-.67c-.5,0-1.14-.15-1.15.59s.59.56,1,.63c.72.12,1.43.3,2.16.35a1,1,0,0,0,1.19-.93c0-.64-.61-.48-1-.53Zm-37,3.91c0-.26-.11-.5-.36-.44-1.25.25-2.49.52-3.71.86a.87.87,0,0,0-.49,1c0,.24.2.52.42.44,1.34-.49,2.66-1,4-1.56C107.86,21.6,107.88,21.45,107.93,21.35ZM104.49,10a4.71,4.71,0,0,0,.84-.11c.93-.28,2.23-.84,2-1.67s-1.29.08-2,.19a4.86,4.86,0,0,0-1.16.22.93.93,0,0,0-.64.91C103.62,10.08,104.09,10,104.49,10ZM49.24,118.17c-1,.4-1.6,1.55-2.87,1.35a.74.74,0,0,0-.94.5,1.05,1.05,0,0,0,.28,1.09c.41.4.82.17,1.22-.07A7.1,7.1,0,0,0,49.24,118.17Zm1.15-64.35c.09.57.5.71.8,1s.82-.24,1.12,0c.82.71.89.73,1.32-.3.13-.31.61-.92.07-1-.7-.07-1.78-.69-1.77-.58C52,54.24,50.92,53.65,50.39,53.82ZM106.22,12a1.44,1.44,0,0,0-1.34.53c-.25.29-1.25,0-.7.91.33.54.75.79,1.38.33.26-.19.71-.13.93-.34s1.33-.17,1.07-1C107.38,11.85,106.7,12.06,106.22,12Zm-.87,7.71c1.09.39,1.92-.64,3-.48.09,0,.3-.2.32-.32,0-.35-.25-.44-.53-.53-1-.29-1.87.32-2.82.15a.75.75,0,0,0-1,.83C104.34,20.16,105,19.57,105.35,19.71Zm40.72-4.52c-.47.81-1.94-.8-2,.52,0,.94,1.41.42,2.18.61h.17c.73-.1,1.95.32,1.95-.72s-1.15-.06-1.73-.36A2.29,2.29,0,0,0,146.07,15.19Zm-86.25,10c-.62.26.74,1.49-.82,1.08a.82.82,0,0,0-.76,1.16c.2.37.5,1.24.94,1a4.45,4.45,0,0,0,1.39-1.83C60.91,25.84,60.35,25.44,59.82,25.15Zm91.48-13.9c.64-.24,2,.29,1.91-.69s-1.38-.57-2.14-.41-1.82-.36-1.76.61C149.34,11.43,150.54,11.2,151.3,11.25Zm-23.4,13a1.68,1.68,0,0,0-.83,1.64c0,.7.59.92,1.21.89s1.12-.38.95-1.08S128.85,24.4,127.9,24.27ZM77,156.36a9.53,9.53,0,0,0,3.29-.45c.56-.2.94-.55.71-1.12-.32-.82-.8-.22-1.21,0s-.74.87-1.3.62C77.41,154.92,77.26,155.66,77,156.36ZM42.81,70.18c1,.1,2.25.67,2.36-1.11,0-.06.16-.17.24-.17.32,0,1,.64.66-.38-.19-.49-.62-1-1.31-.4S43.18,69.19,42.81,70.18Zm33.07,68.95-.46-.43-4.2,4.56C73.72,142.54,74.38,140.39,75.88,139.13ZM109.2,10.93a3,3,0,0,0,2.09-1.16.41.41,0,0,0-.07-.61c-.74-.51-1.24.26-1.86.39-.17,0-.33.08-.49.12-.46.11-1,.26-.91.81S108.72,10.75,109.2,10.93Zm25,13c.54-.05,1-.24,1-.78-.12-1.06-1-1.26-1.86-1.38-.42-.06-.7.18-.59.59C133,23.16,133.31,23.86,134.23,23.94ZM152.39,7.68c1.42,1.1,2.51,1.11,3.82.12C155,6.86,153.8,7.24,152.39,7.68Zm-110.76,69a5.63,5.63,0,0,0,.81-2.81.71.71,0,0,0-.35-.52c-.24-.13-.45.07-.46.32,0,1.62-1.05,1-1.91.67C40,75.61,41.39,75.4,41.63,76.69Zm84.19-50.9c0-.58-.45-1.15-.91-1-1,.34-.42,1.54-1,2.24-.23.3.24.56.61.51C125.61,27.43,125.53,26.48,125.82,25.79ZM52.65,150.2a9,9,0,0,0,.35-4.39A4.5,4.5,0,0,0,52.65,150.2ZM108.49,15.61h-.71c-.47,0-1.18-.26-1.09.59.06.59.54.82,1.15.59a1.9,1.9,0,0,1,.66-.14c.57,0,1.37.12,1.32-.65C109.77,15.06,108.92,15.79,108.49,15.61ZM114.23,5c-1.7.53-3,.9-4.2,1.33-.13,0-.21.36-.23.56,0,0,.29.24.39.2C111.46,6.6,113,6.79,114.23,5ZM58.47,128.4l-.57.54a20.87,20.87,0,0,0,3.25,3.65c.19.16.42.23.6,0s.06-.42-.09-.6C60.6,130.81,59.54,129.6,58.47,128.4Zm-3.08,26.5c.82-1.17,2.47,0,3.35-1.3C57.12,152.85,55.89,152.83,55.39,154.9ZM122.6,26.16c-.06-.34.27-1-.4-.86-.83.12-1.1.86-1.17,1.65,0,.47-.09,1,.56,1C122.92,27.94,122.24,26.77,122.6,26.16ZM56.09,116.39c.57.33.92-.43,1.35-.07s.76.77,1.19.05a.81.81,0,0,0-.07-1.07c-.44-.5-.89-.23-1.38-.13C56.52,115.3,56.28,115.75,56.09,116.39ZM148.5,13.9l0-.53c-1.31-.95-2.77,0-4.14-.15-.06,0-.23.25-.22.38,0,.29.27.3.51.3ZM61.14,156.65c.58-.22.58-.69.48-1.14a1.21,1.21,0,0,0-1.27-1.11c-.42,0-.55.38-.39.75C60.21,155.76,60.37,156.45,61.14,156.65Zm9.85.7c-.37-.34-.71-.89-1.16-1s-.71.54-.71,1a1.09,1.09,0,0,0,.9,1.23C70.62,158.58,70.67,157.88,71,157.35ZM131.2,25.58c.53-.06,1-.3.88-.73a1.89,1.89,0,0,0-1.35-1.55c-.36-.09-.77.17-.65.56A2.89,2.89,0,0,0,131.2,25.58ZM70.69,129.71a7.52,7.52,0,0,0-2.8,1.92.54.54,0,0,0-.13.75.45.45,0,0,0,.73,0C69.07,131.41,70.4,131.12,70.69,129.71Zm6.42,44.54c.39-.13,1.16.14,1.11-.63s-.72-.86-1.25-.93-.78.42-.81.9C76.12,174.22,76.55,174.33,77.11,174.25ZM80,164.54c-1-1.09-2.53-.94-3.74-2C76.83,164.84,78.72,164.11,80,164.54Zm36.66-157c-1.82-.87-2.58-.6-3.55,1.19Zm-2,205.86c-.14,1.48,1,2.08,1.89,2.84C116.41,214.91,115.49,214.17,114.65,213.35Zm-67-142.59a7.08,7.08,0,0,0,.09-3.53A2.5,2.5,0,0,0,47.64,70.76Zm63.11-57.89c-.57.14-1.42.09-1.38.88,0,.6.81.44,1.29.43s1.31.09,1.31-.67C112,12.9,111.25,13,110.75,12.87Zm7,11.93a6.61,6.61,0,0,0-3,2.53C116.63,27.26,117.1,25.94,117.73,24.8ZM148.4,9.24c.55-.36,1.58.27,1.82-.75.11-.46-.44-.66-.84-.55-.68.18-1.65,0-1.9.85C147.32,9.35,148,9.17,148.4,9.24ZM56.26,144.87c0-.52-.76-.64-.32-1s1.15-.39.39-.95-1,.43-1.49.74.1.65.38.9.42.75.94.52C56.26,145,56.28,144.82,56.26,144.87Zm8.51,15.21c0-2.13,0-2.13-2.11-1.93A6.46,6.46,0,0,0,64.77,160.08Zm122.1,69.57a8.62,8.62,0,0,0-3.12,3.15C185.34,231.92,186.41,231.12,186.87,229.65Zm-115-83.47a2.74,2.74,0,0,0,4,1.41C74.28,147.31,72.83,147.32,71.82,146.18ZM113.48,11.86c.55,0,1.24.13,1.33-.68a.58.58,0,0,0-.81-.6c-.59.17-1.56-.18-1.61.8C112.35,12,113.07,11.78,113.48,11.86ZM52.28,57.31a2.92,2.92,0,0,0-1.19-1.52c-.64-.58-1,0-1.37.36a.64.64,0,0,0,.26,1.1c1.18.49,0-.54.41-.7s.5-.14.7.09A1.8,1.8,0,0,0,52.28,57.31Zm67.5-32c-.52.88-1.7,1.28-1.75,2.47a.79.79,0,0,0,.57.17C119.63,27.43,119.69,26.38,119.78,25.31ZM53.13,112a2.66,2.66,0,0,0,1.78,2c.57.17,1-.25,1.22-1.08C54.86,113.33,54.06,112.54,53.13,112ZM99.6,192.93c-.89-.64-.5-1.39-.21-2.17l-2,.26C97.94,192,98.4,192.74,99.6,192.93ZM115.71,24.09c-1.79.35-2.46.89-2.73,2.1C114.28,26,114.78,25,115.71,24.09Zm-62.5,101.3c-.6-.32-1.42.11-1.38-.79-1.65.56-.64,1.62-.09,1.91C52.56,127,52.5,125.7,53.21,125.39ZM128,4.86c-1.74-.72-2.94.16-4.2.31C125.16,5.68,126.41,5.36,128,4.86ZM161.82,8c-1.5-1.2-2.16-1.26-3.59-.36A5.36,5.36,0,0,0,161.82,8ZM69.09,152.08,71.54,155C71.25,153.36,70,152.71,69.09,152.08Zm180.29-44.65c-.61-.61.25-1.91-.95-2.33-.27-.09-.4.45-.26.64.53.74-.24,2,.93,2.43C249.38,108.27,249.42,107.81,249.38,107.43ZM114.66,201.77c-.93-2-1.87-2.9-3.32-3.13C112.67,199.24,113.11,200.71,114.66,201.77Zm28.7-190.21a5,5,0,0,0,3.5,0c.23,0,.43-.2.39-.46s-.36-.37-.64-.31C145.66,11,144.72,11.26,143.36,11.56Zm77.08,188.6c1.18,1.28,2.08,0,3.1.39C222.61,198.47,221.62,200.16,220.44,200.16ZM180.08,223.5c-.32.27-.86.57-.69,1.12s.61.74.94,1.11a7.47,7.47,0,0,0,.61-1.51C181,223.81,180.67,223.51,180.08,223.5Zm-17.76.34c-.14-.8-.2-1.52-.34-2.35l-1.68,1.91A3.86,3.86,0,0,1,162.32,223.84Zm-18.6-3.07a.46.46,0,0,0,.64-.36.4.4,0,0,0-.31-.51,2.47,2.47,0,0,0-1.48-.26c-.45.13-.95.43-.81.92.21.7.6.15.89,0C143.1,220.23,143.37,220.66,143.72,220.77Zm43.63-1.61a4.1,4.1,0,0,0,2.61,2.61A5.45,5.45,0,0,0,187.35,219.16Zm5.82-5.95c-.66.47-1.74.69-1.6,1.71.08.63.7,1.12,1.6,1.23C191.67,215.05,192.6,214.18,193.17,213.21ZM59.18,48.83c-.06-.46-.32-.66-.71-.55-.59.17-1.23.37-1.46,1-.12.33.26.51.54.42C58.15,49.53,58.94,49.64,59.18,48.83Zm147,163.07c.34.46.76.39,1.13.48s.85.62,1.39.29a.5.5,0,0,0,.11-.42,2.79,2.79,0,0,0-1.56-.86A1.09,1.09,0,0,0,206.21,211.9ZM43.33,71.25c-.45.19-.93.42-.9,1a.63.63,0,0,0,.83.59.9.9,0,0,0,.81-.91C44.07,71.51,43.86,71.2,43.33,71.25Zm15.08,60c-.3-1.2-2-1.73-.95-3.07,0,0-.17-.29-.29-.31a.42.42,0,0,0-.47.37C56.36,129.66,56.79,130.67,58.41,131.29Zm71.4-124c.54,0,1.26.3,1.43-.49.12-.59-.45-.57-.81-.45-.6.19-1.6-.4-1.76.48S129.4,7.21,129.81,7.32Zm-6.88.39c-.46-.06-.88-.13-1.31-.17a1.41,1.41,0,0,0-1.32.59.46.46,0,0,0,0,.44c.43.36.86,0,1.28-.08S122.66,8.46,122.93,7.71ZM80.06,181.17c-.89-.11-1.59-.64-2.17.14a.63.63,0,0,0,.31,1C79.07,182.53,79.42,181.81,80.06,181.17Zm-25-70.64c.6,0,.56-.48.61-.84.08-.55-.09-1.13-.7-1.09-.31,0-.76.56-.84.93C54,110.13,54.64,110.3,55.06,110.53ZM145.61,6.4c-.39.19-1.17-.08-1.31.64s.47.52.84.47c.55-.09,1.39.25,1.5-.64C146.7,6.39,146.1,6.44,145.61,6.4ZM54,110.94c-.32-.82-.68-1.44-1.45-1.36-.47,0-.45.66-.31,1C52.61,111.54,53.3,110.83,54,110.94ZM136.79,22.1c.31-.15.67-.31.61-.69-.12-.86-.93-.8-1.53-1-.29-.08-.67.15-.58.42C135.51,21.53,136.17,21.76,136.79,22.1ZM51.32,152.94c-.47.14-.47.57-.49.93s-.1,1,.46,1.11.66-.53.71-.94A1.1,1.1,0,0,0,51.32,152.94ZM139.89,6c.25.38.62.2.93.17.49-.06,1,.15,1.46-.24a.45.45,0,0,0-.06-.43,1.77,1.77,0,0,0-1.77-.24C140.15,5.35,139.82,5.54,139.89,6ZM109,212.55c.63-.1.87-.65,1-1.16a.61.61,0,0,0-.59-.84c-.71.08-.47,1-.92,1.39C108.35,212.09,108.63,212.44,109,212.55ZM62,134.72c-.36.52.48.74.27,1.22-.13.32-.74.55-.27,1,.27.25.51,0,.66-.26.26-.41.75-.8.24-1.33C62.67,135.09,62.53,134.62,62,134.72Zm54-125.12c.26.55.8.26,1.19.4a.93.93,0,0,0,1.14-.48c.13-.2.22-.43,0-.6a1.19,1.19,0,0,0-1.28,0C116.76,9.12,116.2,9,116.06,9.6ZM218.12,202.42c-.55,0-.56.33-.45.67s-.19,1.06.59.93c.41-.07,1-.2,1-.77S218.48,202.7,218.12,202.42ZM59.61,148.08c-.18,1.82-.18,1.82,1.45,1.74C61,149,60.34,148.63,59.61,148.08Zm108.06,77.39a3.31,3.31,0,0,0-1.57-2,.55.55,0,0,0-.8.36c-.11.32.07.63.39.57C166.52,224.28,166.77,225.11,167.67,225.47ZM39.1,142.88c-.34.16-.67.34-1,.49-.91.39-1,1-.14,1.15C39.16,144.78,38.67,143.47,39.1,142.88Zm-.88-26.48c.59-.47,1.49.62,1.9-.4a.55.55,0,0,0-.28-.72C39,115,38.54,115.6,38.22,116.4Zm125,117.06c.05.75,0,1.6.67,1.67s.71-.82,1.05-1.39ZM83.87,156.58A3.46,3.46,0,0,0,82,158.2c0,.05.24.34.3.32A2.69,2.69,0,0,0,83.87,156.58ZM54.43,118.11c.34.53.4,1.37,1.1,1.35s.84-.59.78-1.55C55.6,119,55.11,118.21,54.43,118.11ZM111,4.12c-1,.45-2.34,0-3.45,1.23A7.83,7.83,0,0,0,111,4.12ZM95.74,7.9c0-.31-.1-.6-.35-.52a2.21,2.21,0,0,0-1.64,1.27c-.09.23.22.43.44.34A2.91,2.91,0,0,0,95.74,7.9Zm-37.57,103c0-.38,0-.81-.45-.75s-.6.62-.67,1,.05.77.46.73C58.09,111.9,58,111.31,58.17,110.93Zm18.89,78.89c-.81-.89-.67-2-.72-3.16C75.44,187.56,75.75,188.8,77.06,189.82ZM126.9,7.11a3.08,3.08,0,0,0-.69-.32,1.77,1.77,0,0,0-1.71.45.43.43,0,0,0,.06.43c.5.4,1-.09,1.43-.11C126.3,7.55,126.69,7.66,126.9,7.11ZM37.35,77.21a6.88,6.88,0,0,0,2.89,2.9A8.25,8.25,0,0,0,37.35,77.21ZM132.52,4.72a3.59,3.59,0,0,0-2.75,0A3.23,3.23,0,0,0,132.52,4.72ZM156.29,229c.09.77.33,1.4-.19,2,.83.13,1.31-.1,1.42-.76S157.12,229.27,156.29,229ZM54.14,33.12a7.29,7.29,0,0,0,2.65-2.23C55.41,31.13,54.84,31.83,54.14,33.12ZM70.2,181.73c-.55.78.45,1.05.09,1.58-.16.25-1,.4-.23.79.42.22.63-.37.82-.68C71.39,182.59,70.66,182.29,70.2,181.73ZM60.47,32.22c-1.42.39-2,.94-2.33,2.13A6.19,6.19,0,0,0,60.47,32.22ZM138.63,7.28a.79.79,0,0,0-1-.37c-.45.1-.93.27-.92.81s.45.43.75.3S138.48,7.91,138.63,7.28Zm-26.18,14.4c-.85-.18-1.41.6-2.2.34-.41-.13-.7.38-.32.56.9.43,1.65-.27,2.43-.62C112.39,22,112.39,21.86,112.45,21.68Zm-53.28,62a2.28,2.28,0,0,0-1.45-1.87s-.31.18-.31.28c0,.8.88.91,1.23,1.46C58.69,83.65,58.91,83.64,59.17,83.7Z"/><path d="M69.2,116.17a.42.42,0,0,1-.09-.14c0-.88-1.76-1.48-.83-2.19.59-.45,2,.11,2.74,1.07l.24.59c-.9,1.16-1.08,2.23.35,3.13,0,.1,0,.2,0,.3-.82.12-1.35-.62-2.1-.69s-1.34.15-.67,1.07c-.21,1.17-1.32,1.54-2,2.24.18-.75,0-1.32-.8-.73A6.34,6.34,0,0,0,63.39,124c1.17-.81,1.93-2.15,3.42-2.49.24,1.57-1,3.29.83,4.71l-.6.28c-.57-.64-1.18-1.24-1.68-1.92-.21-.28-.18-1-.71-.54s-1.24.94-1.18,1.7c0,.44.67-.07,1.17,0-.65.81-1.13,1-1.88.27-2.41-2.28-2.42-2.25-.12-4.6.59-.6,1.63-1,.71-2.22-.25-.32,2.18-2.43,2.65-2.19s1-.28,1.45-.15c.47.63-.44,1-.28,1.56-2.17.8-3.15,2.87-4.63,4.41,1.68-1.33,3.45-2.56,4.6-4.45a4.7,4.7,0,0,0,2-2.18Z"/><path d="M47.14,86.89c1-.48,2.06.38,3.07-.35.37-.27.95.44,1.06.86.44,1.76,1.84,2.06,3.28,2.34-.68.93-2.41,1.19-3,.37C50.72,89,50,87.88,48.35,88.77c-.18.1-.65-.34-1-.54C46.86,87.85,46.46,87.46,47.14,86.89Z"/><path d="M131,203.27c.4.22,1,.51.95-.22s.54-1.19.82-1.76c-.7,1,.33,2-.17,3,1.22,0,2.09-.31,2.24-1.62,0-.36.58-.5,1-.58l0,0c-.77,1.19-.17,2.15.52,3.1-.63-.37-1.21.25-1.74.14-1.52-.33-.78.42-.53,1-.93-1-1.72.23-2.59.17l-.75-.75C130.79,204.88,131.56,204.16,131,203.27Z"/><path d="M86.36,154.37c1.15-1.34,2.88-.88,4.31-1.38a.6.6,0,0,1,.49.34c0,.33-.24.49-.56.44-.77-.12-1.25,0-.95,1,.13.44-.31.31-.57.25s-.72-.14-1,.16c-1.27,1.66-1.48.46-1.73-.64C86.39,154.47,86.37,154.42,86.36,154.37Z"/><path d="M93.47,178.88c-.17-.82-.82-.28-1.34-.45.21-.64.54-1.34,1.21-.88a2.85,2.85,0,0,0,2.77.24.85.85,0,0,1,.08.87c-.85,1.32-1.81.69-2.77.18Z"/><path d="M132.89,201.09l1.05-1.59.11-.13c.7-.29,1.29.12,1.92.3-.33,1.49.9,2.13,1.65,3a3.3,3.3,0,0,0-1.86-.65l0,0C135,201.2,134.41,199.79,132.89,201.09Z"/><path d="M78.22,141a5.39,5.39,0,0,0-.59.58c-.4.5-.77,1-1.48.42s-.23-1,.1-1.41.48-.74.73-1.11l.4.28C77.42,140.33,77.47,140.9,78.22,141Z"/><path d="M54.92,97.44c.65-.33,1.3-.43,1.76.28s-.12,1.19-.74,1.8c1.23-1.84-1.15-1.06-1.14-2A.43.43,0,0,1,54.92,97.44Z"/><path d="M93.92,165.22c-.55-.93-1.44-1.85.2-3-.4,1.12.64,2-.14,3Z"/><path d="M168.84,197.07c-.55-1.46.18-2.12,1-2.74C169.16,195,169.58,196.11,168.84,197.07Z"/><path d="M136.31,177.31c0,.91,0,.91,2.68-.65-1,1.59-2.46,2.36-3.53,3.62C136.21,179.43,135.19,178.22,136.31,177.31Z"/><path d="M137.8,183.79c1.5-.09,2.07-1.13,2.4-2.39.4.29.73-.23,1.31,0l-2.64,2.8C138.25,184.82,138,184.25,137.8,183.79Z"/><path d="M124.37,144.83c.47.44.9.91.51,1.66-.15.31-.45.56-.81.3s-.59-.51-.12-.78S123.66,145.1,124.37,144.83Z"/><path d="M112.28,165.41c.73-.83-1.12-1-.36-1.76.43-.44.73.06,1,.32C113.4,164.57,113,165,112.28,165.41Z"/><path d="M121.06,185.67c-.15.72-1.14,1.29-.35,2.26.11.13-.65.94-1.37,1.33.21-1.48-.48-3.21,1.76-3.55Z"/><path d="M112.83,186.65c.47-.69.87-1.38,1.51-1.06a7,7,0,0,1,1.71,1.57c.06.05,0,.35-.14.44s-.28,0-.43-.07C114.65,187.31,114,186.59,112.83,186.65Z"/><path d="M108.41,170l1.36-.56c.45.6-.67.64-.24,1.23.67.26.9-.84,1.67-.72-.4.9-.93,1.55-2,1.45s-.62-.9-.76-1.45Z"/><path d="M122.7,173.78a13.8,13.8,0,0,1,3,3.47Z"/><path d="M121.1,185.71c.86-1.82,1.2-1.88,2.45-.32a5.92,5.92,0,0,1-2.49.28Z"/><path d="M115.7,168.56c-.62,1.43.44,2,.69,2.94C114.38,170.48,114.09,169.7,115.7,168.56Z"/><path d="M119.94,191.72c.64-.73,1.28-1.47,1.94-2.18.18-.2.44-.41.7-.1s.07.42-.11.58l-2.22,2Z"/><path d="M119.74,173.23c1.71.46,2.21,2.28,3.61,3.07C121.69,175.8,121,174.15,119.74,173.23Z"/><path d="M107.51,188.87a8.92,8.92,0,0,1-.35-1.11c-.08-.43.25-.6.6-.62a1.52,1.52,0,0,1,.94.1c.38.28,0,.57-.16.84a1.71,1.71,0,0,1-1.06.74Z"/><path d="M118.54,190.16c-.31.54-.51.91-.88.83a1.07,1.07,0,0,1-.94-1.2,1.4,1.4,0,0,1,.64-.69C117.82,189.42,117.42,190.44,118.54,190.16Z"/><path d="M115.93,183.42l2.48-2.71A3.71,3.71,0,0,1,115.93,183.42Z"/><path d="M107.48,188.82a4.5,4.5,0,0,1-1.32,2c-.08-1,.54-1.75-.11-2.45.74-.19,1,.32,1.46.53Z"/><path d="M118.9,175.77c-1.36-.6-1.19-1.23-.84-1.88.11-.2.39-.38.56-.22C119.25,174.27,118.45,174.89,118.9,175.77Z"/><path d="M98,162.19a1.65,1.65,0,0,1,.84-2.13c1.24-.35,1.1-1.2,1.2-2.1,1,.42,1.51,1.12.76,1.94s-.56,1.44.23,2c.54.41.45.86,0,1.28-.2.18-.68.36-.67.29.27-1.06-1-.83-1-1-.12-1.71-1-.1-1.36-.34Z"/><path d="M88.18,159.37c1.13,0,1.81.06,2.48,0,.9-.09,2.1.1,1.74-1.52-.11-.47.34-.31.57-.29.43,0,1-.24,1.2.34a.94.94,0,0,1-.52,1.15C92.07,159.91,90.48,160.85,88.18,159.37Z"/><path d="M97.91,162.15c-2.26,1.11-2.54,1-4.74-1.91,1.34,1.34,3.07,1.62,4.77,1.95Z"/><path d="M95.66,157.3c.35-.41-1.21-1.24.24-1.35a1.21,1.21,0,0,1,1.24,1c.07.65-.74.77-1.23.93S95.33,157.68,95.66,157.3Z"/><path d="M93.86,151.78c-.33,0-.77.06-.84-.37a.55.55,0,0,1,.66-.59,3.76,3.76,0,0,0,2.11-.41c.16,1.83-1.58.59-2,1.41Z"/><path d="M93.83,151.82a4.28,4.28,0,0,0,2.75,1.35c-.29.61-.72.83-1.21.62a2,2,0,0,1-1.51-2Z"/><path d="M103.05,147.13a11.66,11.66,0,0,1-3.16,2.94c.92-1.12,1.54-2.55,3.2-2.91Z"/><path d="M139.92,206a5.7,5.7,0,0,0,.32.6c1.14,1.53,1.44,1.55,2.75.24.36-.35.79-.64,1.45-1.16-1.08-.3-1.83-.55-1.94-1.48.39-.28.82.16,1.27-.11.64-.38.83.35,1.15.7a.75.75,0,0,1-.06,1.19c-.79.66-.59,1.23,0,1.84.36.36.77.68.19,1.26s-1,.77-1.59.23c-.09-.08-.2-.12-.29-.19-.37-.29-.75-.56-1.19-.11s-.09.79.16,1.18c.59.92,2,1.93-.36,2.55-.75.2-.32.71.17,1.08s1.36.83.91,1.59-1.28.6-2,.29c-1-.42-1.94-.86-2.85-1.26.05-1,1,.08.91-.62s-.72-.92-1.47-.67c.15-.71.43-1.09,1-1.2.11.43.51.57.77.84,1.72,1.78,1.61-.61,2.24-1.06,1.1-.78-.12-.91-.69-1.65.16,2.34-1.19,2-2.36,1.92-.09-1-.47-1.9,0-2.84a.67.67,0,0,1,.44.92c-.21.83.29,1.16,1,1.3.36-.56-.51-1,0-1.46a.54.54,0,0,0-.17-.95c-.47-.24-.94-.44-1.25.23-1,.36-1.43,1.4-2.22,2v.06c-.33-.63-.56-1.36-1.48-1.32l0,0c-.15-.68-.69-1.29-.15-2.07.33-.47,0-1-.33-1.37a1.41,1.41,0,0,0,1.85,0,.88.88,0,0,0,.17-1.43c.6.49,1.17-.12,1.89-.09-.14.56-.73,1.54.65,1,.32-.12.76.07,1.15.11Z"/><path d="M140,206.14c-.66-1,.19-2.53-1-3.4l2.69-2,1.76-1.25c-.23,1.08-.95,1.46-1.5,2-1,.92-1.67,1.9-.56,3.18a.69.69,0,0,1,0,1,1,1,0,0,1-1.48.29Z"/><path d="M143.85,202.56c.23-.75.65-1.18,1.38-1s.91.15.65-.59c0-.08.17-.34.22-.33.77.15,1.08.91,1.71,1.26s.15.57,0,.82c-.38.48-.71,1.12-1.45.48-.4-.35-1.68.93-1.39-.79C145,202.18,144.4,203,143.85,202.56Z"/><path d="M136.25,211.29v-.06c.37-.07.83-.35,1.09.06s-.23.76-.49.94c-.88.62-.93,1.26.27,2.28l-2-.57.07.07a9.48,9.48,0,0,1-.2-1.82C135.05,211.48,135.42,211,136.25,211.29Z"/><path d="M135.22,214l-.07-.07c.41,1.45,1.57,1.6,3,1.54-2.41,1-2.57.9-4.23-2.06C134.55,213.2,134.84,213.72,135.22,214Z"/><path d="M151.78,200a12,12,0,0,1-3.21,3.44A8.65,8.65,0,0,1,151.78,200Z"/><path d="M136.28,219.48c-.35-.23-1.25.35-1.12-.5s1-.47,1.6-.64a.48.48,0,0,1,.67.52C137.4,219.63,136.8,219.49,136.28,219.48Z"/><path d="M153.22,212c.08.21.17.32.15.4-.21.73-.17,1.59-1,2-.08,0-.36-.15-.36-.21A2.35,2.35,0,0,1,153.22,212Z"/><path d="M144.16,200.76c.28-1.64.28-1.64,1.71-1.48C145.59,200.11,144.91,200.41,144.16,200.76Z"/><path d="M137.46,200.56c.14-.39.25-1.15.7-.91,1,.51,1.4-.3,2.07-.5C140.06,201.09,138.67,200.65,137.46,200.56Z"/><path d="M134.77,210a2.31,2.31,0,0,1-1,1.82c.23-2.27.23-2.27,1.06-1.78Z"/><path d="M85.11,104.33c-.39,1.39-1.47,1.93-2.62,3.06.27-1.1.41-1.82-.1-2.57A2.12,2.12,0,0,0,85.11,104.33Z"/><path d="M85.15,108v-1.85C86.59,106.69,86.59,106.69,85.15,108Z"/><path d="M77.05,131.6a1.78,1.78,0,0,0-1.13-1.85c-.58-.32-.78.62-1.27.83.14-1.37.81-2,2.15-1.4.33-.42,0-.68-.1-1a1,1,0,0,1,.62-1.1c.4-.23.63.05.45.5-.06.16-.27.28-.27.42,0,.66-.2,1.48.11,1.95C78.27,130.93,77.36,131.12,77.05,131.6Z"/><path d="M75.16,133.45a1.94,1.94,0,0,1,1.55-1.55c1.16.21,1.53.61.43,1.49-.72.58-1.15,1.51-2.18,1.8C74.83,134.57,75.58,134.07,75.16,133.45Z"/><path d="M83.73,136.55a1.54,1.54,0,0,1-1.17-.52,1.87,1.87,0,0,0-2.79-.5c0-.53-.73-.75-.46-1.54.67,1,1.57-.29,2.31.38s1.24,1.48,2.32.64C84.14,135.65,83.4,136,83.73,136.55Z"/><path d="M80.82,127.67a.82.82,0,0,1-1.55-.27c.81-1.77-1.07-2.28-1.51-3.47A3.15,3.15,0,0,1,80.15,127c-.06.64.37.59.71.71Z"/><path d="M80.86,127.71c.34-1.25.09-2.61.67-3.83l0,0c1.21.8.87,2.68-.67,3.75Z"/><path d="M79.43,132.49c.67-.72.88-2.3,2.43-1.37.19.11.44.27.32.52s-.39.12-.58,0-.61-.15-.57,0C81.5,133.68,79.76,131.9,79.43,132.49Z"/><path d="M86,127.66c-.14.28-.27.81-.66.46-.61-.55-1.47-1.05-1.57-1.9-.08-.59.46-1.08,1.45-1.09-1.08,1.41-.58,2.18.82,2.57Z"/><path d="M81.53,123.88c-.77-.5-2.24-.62-1.08-2.11.14-.18.24-.4.5-.31s.38.38.23.53c-.77.81.26,1.28.31,1.93Z"/><path d="M69.29,108.49a2.86,2.86,0,0,1-1.78-2C68.85,107.27,69,107.38,69.29,108.49Z"/><path d="M57.92,92c.93-.09,2,.43,2.74-.51,1,.84,2.7-.19,3.75,1.43-.9,0-2.61-1-1.49,1,.12.22-.24,1.39-1.15.58-.42-.37-.83-.75-1.27-1.1s-.69-1-1.41-.61-.65,1-.33,1.81C57.27,93.94,57.86,92.87,57.92,92Z"/><path d="M59.52,95.47l-1.65,2c1.07-1.51-.85-1.91-1.14-3.09C57.72,94.75,58.29,96,59.52,95.47Z"/><path d="M69.17,126.11c.36.55-.18.89-.12,1.33s.51.73,0,1c-.27.14-.52-.09-.72-.29a.9.9,0,0,1-.16-1.21C68.36,126.59,68.53,126.13,69.17,126.11Z"/><path d="M69.2,116.17l-.06,0c-.83.66-1.69-.31-2.65.23C67.43,114.31,68.33,115.71,69.2,116.17Z"/><path d="M65.9,126.7a8.6,8.6,0,0,0,.29,2.48c0,.29,0,.62-.31.68s-.42-.3-.42-.58c0-.84,0-1.67,0-2.51Z"/><path d="M53.5,61.42l-1.17.28c.61-1.58,2-2.34,3.14-3.3.45-.37.51-.29,1.31.85-1.84-.31-2.7.79-3.33,2.21Z"/><path d="M196.18,222.92c.29-1.45-1.59-1.57-1.71-2.78.69.47,1.39.91,2.05,1.41C197.43,222.24,197,222.63,196.18,222.92Z"/><path d="M63.25,40.66a2.7,2.7,0,0,1,.43-.18,3.44,3.44,0,0,1,2,2c0,.05-.14.24-.18.23C64.35,42.46,64.34,41.15,63.25,40.66Z"/><path d="M70.55,22.86V21.8L72,21.16c-.14.77-.62,1.45.23,2.26Z"/></g></g></svg>