<svg xmlns="http://www.w3.org/2000/svg" xmlns:xlink="http://www.w3.org/1999/xlink" width="930" zoomAndPan="magnify" viewBox="0 0 697.5 264.749989" height="353" preserveAspectRatio="xMidYMid meet" version="1.0"><defs><g/><clipPath id="fd931a6da9"><path d="M 33 27 L 222 27 L 222 221 L 33 221 Z M 33 27 " clip-rule="nonzero"/></clipPath><clipPath id="7d425d6520"><path d="M 64.777344 0 L 239.5 53.835938 L 174.851562 263.644531 L 0.132812 209.808594 Z M 64.777344 0 " clip-rule="nonzero"/></clipPath><clipPath id="b62b9439bc"><path d="M 64.777344 0 L 239.5 53.835938 L 174.851562 263.644531 L 0.132812 209.808594 Z M 64.777344 0 " clip-rule="nonzero"/></clipPath></defs><g clip-path="url(#fd931a6da9)"><g clip-path="url(#7d425d6520)"><g clip-path="url(#b62b9439bc)"><path fill="#abdb27" d="M 152.527344 27.039062 L 106.570312 99.652344 L 36.082031 93.199219 L 77.5 146.691406 L 33.148438 220.171875 L 109.535156 165.09375 L 63.550781 190.527344 L 92.050781 143.304688 L 65.421875 108.921875 L 110.730469 113.078125 L 140.273438 66.390625 L 139.765625 116.191406 L 221.566406 113.105469 L 151.738281 104.5 L 152.527344 27.039062 " fill-opacity="1" fill-rule="nonzero"/></g></g></g><g fill="#a08cfd" fill-opacity="1"><g transform="translate(67.473677, 166.072705)"><g/></g></g><g fill="#a08cfd" fill-opacity="1"><g transform="translate(94.448203, 166.072705)"><g><path d="M 48.53125 -41.96875 C 49.25 -41.96875 49.828125 -41.707031 50.265625 -41.1875 C 50.703125 -40.675781 50.847656 -40.035156 50.703125 -39.265625 L 49.375 -32 C 49.28125 -31.21875 48.921875 -30.570312 48.296875 -30.0625 C 47.679688 -29.550781 47.015625 -29.296875 46.296875 -29.296875 L 16.234375 -29.296875 C 15.609375 -29.296875 15.21875 -28.957031 15.0625 -28.28125 C 14.96875 -27.613281 15.253906 -27.28125 15.921875 -27.28125 L 44.4375 -27.28125 C 45.570312 -27.28125 46.472656 -26.878906 47.140625 -26.078125 C 47.804688 -25.285156 48.039062 -24.320312 47.84375 -23.1875 L 44.75 -5.328125 C 44.488281 -3.890625 43.738281 -2.640625 42.5 -1.578125 C 41.269531 -0.523438 39.90625 0 38.40625 0 L 12.828125 0 C 12.054688 0 11.453125 -0.253906 11.015625 -0.765625 C 10.578125 -1.285156 10.4375 -1.929688 10.59375 -2.703125 L 11.90625 -9.96875 C 12.007812 -10.738281 12.367188 -11.378906 12.984375 -11.890625 C 13.597656 -12.410156 14.269531 -12.671875 15 -12.671875 L 32.375 -12.671875 C 33 -12.671875 33.390625 -13.003906 33.546875 -13.671875 C 33.640625 -14.296875 33.351562 -14.609375 32.6875 -14.609375 L 5.40625 -14.609375 C 3.914062 -14.609375 2.734375 -15.132812 1.859375 -16.1875 C 0.984375 -17.25 0.695312 -18.523438 1 -20.015625 L 3.859375 -36.625 C 4.117188 -38.070312 4.863281 -39.320312 6.09375 -40.375 C 7.332031 -41.4375 8.703125 -41.96875 10.203125 -41.96875 Z M 48.53125 -41.96875 "/></g></g></g><g fill="#a08cfd" fill-opacity="1"><g transform="translate(150.701956, 166.072705)"><g><path d="M 46.90625 -41.96875 C 48.40625 -41.96875 49.578125 -41.4375 50.421875 -40.375 C 51.273438 -39.320312 51.570312 -38.070312 51.3125 -36.625 L 45.828125 -5.328125 C 45.566406 -3.890625 44.816406 -2.640625 43.578125 -1.578125 C 42.347656 -0.523438 40.984375 0 39.484375 0 L 3.859375 0 C 2.421875 0 1.265625 -0.523438 0.390625 -1.578125 C -0.484375 -2.640625 -0.796875 -3.890625 -0.546875 -5.328125 L 5.015625 -36.625 C 5.273438 -38.070312 6.007812 -39.320312 7.21875 -40.375 C 8.4375 -41.4375 9.789062 -41.96875 11.28125 -41.96875 Z M 36.859375 -26.578125 C 37.015625 -27.359375 36.875 -28.003906 36.4375 -28.515625 C 36 -29.035156 35.421875 -29.296875 34.703125 -29.296875 L 19.09375 -29.296875 C 18.3125 -29.296875 17.613281 -29.035156 17 -28.515625 C 16.382812 -28.003906 16.023438 -27.359375 15.921875 -26.578125 L 13.90625 -15.375 C 13.800781 -14.601562 13.957031 -13.957031 14.375 -13.4375 C 14.789062 -12.925781 15.382812 -12.671875 16.15625 -12.671875 L 31.765625 -12.671875 C 32.484375 -12.671875 33.148438 -12.925781 33.765625 -13.4375 C 34.390625 -13.957031 34.78125 -14.601562 34.9375 -15.375 Z M 36.859375 -26.578125 "/></g></g></g><g fill="#a08cfd" fill-opacity="1"><g transform="translate(208.11477, 166.072705)"><g><path d="M 49.609375 -41.96875 C 50.335938 -41.96875 50.921875 -41.707031 51.359375 -41.1875 C 51.796875 -40.675781 51.9375 -40.035156 51.78125 -39.265625 L 45.828125 -5.328125 C 45.566406 -3.890625 44.816406 -2.640625 43.578125 -1.578125 C 42.347656 -0.523438 40.984375 0 39.484375 0 L 3.859375 0 C 2.421875 0 1.265625 -0.523438 0.390625 -1.578125 C -0.484375 -2.640625 -0.796875 -3.890625 -0.546875 -5.328125 L 5.484375 -39.265625 C 5.585938 -40.035156 5.945312 -40.675781 6.5625 -41.1875 C 7.1875 -41.707031 7.882812 -41.96875 8.65625 -41.96875 L 15.921875 -41.96875 C 16.691406 -41.96875 17.28125 -41.707031 17.6875 -41.1875 C 18.101562 -40.675781 18.257812 -40.035156 18.15625 -39.265625 L 13.90625 -15.375 C 13.800781 -14.601562 13.957031 -13.957031 14.375 -13.4375 C 14.789062 -12.925781 15.382812 -12.671875 16.15625 -12.671875 L 31.765625 -12.671875 C 32.484375 -12.671875 33.148438 -12.925781 33.765625 -13.4375 C 34.390625 -13.957031 34.78125 -14.601562 34.9375 -15.375 L 39.109375 -39.265625 C 39.265625 -40.035156 39.648438 -40.675781 40.265625 -41.1875 C 40.878906 -41.707031 41.546875 -41.96875 42.265625 -41.96875 Z M 49.609375 -41.96875 "/></g></g></g><g fill="#a08cfd" fill-opacity="1"><g transform="translate(265.60485, 166.072705)"><g><path d="M 43.515625 -41.96875 C 44.285156 -41.96875 44.875 -41.707031 45.28125 -41.1875 C 45.695312 -40.675781 45.851562 -40.035156 45.75 -39.265625 L 39.71875 -5.328125 C 39.46875 -3.890625 38.734375 -2.640625 37.515625 -1.578125 C 36.304688 -0.523438 34.957031 0 33.46875 0 L 20.09375 0 C 18.800781 0 17.726562 -0.4375 16.875 -1.3125 C 16.03125 -2.1875 15.609375 -3.269531 15.609375 -4.5625 L 16.234375 -28.28125 L 11.75 -2.703125 C 11.59375 -1.929688 11.203125 -1.285156 10.578125 -0.765625 C 9.960938 -0.253906 9.296875 0 8.578125 0 L 1.234375 0 C 0.515625 0 -0.0625 -0.253906 -0.5 -0.765625 C -0.9375 -1.285156 -1.078125 -1.929688 -0.921875 -2.703125 L 5.015625 -36.625 C 5.273438 -38.070312 6.023438 -39.320312 7.265625 -40.375 C 8.503906 -41.4375 9.867188 -41.96875 11.359375 -41.96875 L 24.65625 -41.96875 C 25.988281 -41.96875 27.082031 -41.53125 27.9375 -40.65625 C 28.789062 -39.78125 29.191406 -38.695312 29.140625 -37.40625 L 28.515625 -13.671875 L 33.078125 -39.265625 C 33.179688 -40.035156 33.539062 -40.675781 34.15625 -41.1875 C 34.769531 -41.707031 35.46875 -41.96875 36.25 -41.96875 Z M 43.515625 -41.96875 "/></g></g></g><g fill="#a08cfd" fill-opacity="1"><g transform="translate(316.990535, 166.072705)"><g><path d="M 46.90625 -41.96875 C 48.40625 -41.96875 49.59375 -41.4375 50.46875 -40.375 C 51.34375 -39.320312 51.648438 -38.070312 51.390625 -36.625 L 45.828125 -5.328125 C 45.566406 -3.890625 44.816406 -2.640625 43.578125 -1.578125 C 42.347656 -0.523438 41.007812 0 39.5625 0 L 15.921875 0 C 15.148438 0 14.546875 -0.253906 14.109375 -0.765625 C 13.671875 -1.285156 13.523438 -1.929688 13.671875 -2.703125 L 15 -9.96875 C 15.09375 -10.738281 15.445312 -11.378906 16.0625 -11.890625 C 16.6875 -12.410156 17.382812 -12.671875 18.15625 -12.671875 L 31.765625 -12.671875 C 32.535156 -12.671875 33.226562 -12.925781 33.84375 -13.4375 C 34.46875 -13.957031 34.832031 -14.601562 34.9375 -15.375 L 36.9375 -26.578125 C 37.039062 -27.359375 36.882812 -28.003906 36.46875 -28.515625 C 36.0625 -29.035156 35.472656 -29.296875 34.703125 -29.296875 L 19.09375 -29.296875 C 18.363281 -29.296875 17.691406 -29.035156 17.078125 -28.515625 C 16.460938 -28.003906 16.078125 -27.359375 15.921875 -26.578125 L 11.75 -2.703125 C 11.59375 -1.929688 11.203125 -1.285156 10.578125 -0.765625 C 9.960938 -0.253906 9.296875 0 8.578125 0 L 1.234375 0 C 0.515625 0 -0.0625 -0.253906 -0.5 -0.765625 C -0.9375 -1.285156 -1.078125 -1.929688 -0.921875 -2.703125 L 5.015625 -36.625 C 5.273438 -38.070312 6.023438 -39.320312 7.265625 -40.375 C 8.503906 -41.4375 9.867188 -41.96875 11.359375 -41.96875 Z M 46.90625 -41.96875 "/></g></g></g><g fill="#a08cfd" fill-opacity="1"><g transform="translate(374.480616, 166.072705)"><g/></g></g><g fill="#a08cfd" fill-opacity="1"><g transform="translate(401.448717, 166.072705)"><g><path d="M 16.078125 -41.96875 C 16.796875 -41.96875 17.375 -41.707031 17.8125 -41.1875 C 18.25 -40.675781 18.390625 -40.035156 18.234375 -39.265625 L 11.828125 -2.703125 C 11.671875 -1.929688 11.28125 -1.285156 10.65625 -0.765625 C 10.039062 -0.253906 9.375 0 8.65625 0 L 1.3125 0 C 0.59375 0 0.015625 -0.253906 -0.421875 -0.765625 C -0.859375 -1.285156 -1 -1.929688 -0.84375 -2.703125 L 5.5625 -39.265625 C 5.71875 -40.035156 6.101562 -40.675781 6.71875 -41.1875 C 7.34375 -41.707031 8.015625 -41.96875 8.734375 -41.96875 Z M 16.078125 -41.96875 "/></g></g></g><g fill="#a08cfd" fill-opacity="1"><g transform="translate(425.403252, 166.072705)"><g><path d="M 43.515625 -41.96875 C 44.285156 -41.96875 44.875 -41.707031 45.28125 -41.1875 C 45.695312 -40.675781 45.851562 -40.035156 45.75 -39.265625 L 39.71875 -5.328125 C 39.46875 -3.890625 38.734375 -2.640625 37.515625 -1.578125 C 36.304688 -0.523438 34.957031 0 33.46875 0 L 20.09375 0 C 18.800781 0 17.726562 -0.4375 16.875 -1.3125 C 16.03125 -2.1875 15.609375 -3.269531 15.609375 -4.5625 L 16.234375 -28.28125 L 11.75 -2.703125 C 11.59375 -1.929688 11.203125 -1.285156 10.578125 -0.765625 C 9.960938 -0.253906 9.296875 0 8.578125 0 L 1.234375 0 C 0.515625 0 -0.0625 -0.253906 -0.5 -0.765625 C -0.9375 -1.285156 -1.078125 -1.929688 -0.921875 -2.703125 L 5.015625 -36.625 C 5.273438 -38.070312 6.023438 -39.320312 7.265625 -40.375 C 8.503906 -41.4375 9.867188 -41.96875 11.359375 -41.96875 L 24.65625 -41.96875 C 25.988281 -41.96875 27.082031 -41.53125 27.9375 -40.65625 C 28.789062 -39.78125 29.191406 -38.695312 29.140625 -37.40625 L 28.515625 -13.671875 L 33.078125 -39.265625 C 33.179688 -40.035156 33.539062 -40.675781 34.15625 -41.1875 C 34.769531 -41.707031 35.46875 -41.96875 36.25 -41.96875 Z M 43.515625 -41.96875 "/></g></g></g><g fill="#a08cfd" fill-opacity="1"><g transform="translate(476.788936, 166.072705)"><g><path d="M 46.90625 -41.96875 C 48.40625 -41.96875 49.59375 -41.4375 50.46875 -40.375 C 51.34375 -39.320312 51.648438 -38.070312 51.390625 -36.625 L 45.828125 -5.328125 C 45.566406 -3.890625 44.816406 -2.640625 43.578125 -1.578125 C 42.347656 -0.523438 41.007812 0 39.5625 0 L 15.921875 0 C 15.148438 0 14.546875 -0.253906 14.109375 -0.765625 C 13.671875 -1.285156 13.523438 -1.929688 13.671875 -2.703125 L 15 -9.96875 C 15.09375 -10.738281 15.445312 -11.378906 16.0625 -11.890625 C 16.6875 -12.410156 17.382812 -12.671875 18.15625 -12.671875 L 31.765625 -12.671875 C 32.535156 -12.671875 33.226562 -12.925781 33.84375 -13.4375 C 34.46875 -13.957031 34.832031 -14.601562 34.9375 -15.375 L 36.9375 -26.578125 C 37.039062 -27.359375 36.882812 -28.003906 36.46875 -28.515625 C 36.0625 -29.035156 35.472656 -29.296875 34.703125 -29.296875 L 19.09375 -29.296875 C 18.363281 -29.296875 17.691406 -29.035156 17.078125 -28.515625 C 16.460938 -28.003906 16.078125 -27.359375 15.921875 -26.578125 L 11.75 -2.703125 C 11.59375 -1.929688 11.203125 -1.285156 10.578125 -0.765625 C 9.960938 -0.253906 9.296875 0 8.578125 0 L 1.234375 0 C 0.515625 0 -0.0625 -0.253906 -0.5 -0.765625 C -0.9375 -1.285156 -1.078125 -1.929688 -0.921875 -2.703125 L 5.015625 -36.625 C 5.273438 -38.070312 6.023438 -39.320312 7.265625 -40.375 C 8.503906 -41.4375 9.867188 -41.96875 11.359375 -41.96875 Z M 46.90625 -41.96875 "/></g></g></g><g fill="#a08cfd" fill-opacity="1"><g transform="translate(534.278995, 166.072705)"><g><path d="M 49.609375 -41.96875 C 50.335938 -41.96875 50.921875 -41.707031 51.359375 -41.1875 C 51.796875 -40.675781 51.9375 -40.035156 51.78125 -39.265625 L 50.546875 -32 C 50.390625 -31.21875 50 -30.570312 49.375 -30.0625 C 48.757812 -29.550781 48.09375 -29.296875 47.375 -29.296875 L 17.390625 -29.296875 C 16.722656 -29.296875 16.335938 -28.957031 16.234375 -28.28125 C 16.078125 -27.613281 16.332031 -27.28125 17 -27.28125 L 46.984375 -27.28125 C 47.753906 -27.28125 48.34375 -27.019531 48.75 -26.5 C 49.164062 -25.988281 49.328125 -25.375 49.234375 -24.65625 L 47.921875 -17.3125 C 47.816406 -16.59375 47.453125 -15.960938 46.828125 -15.421875 C 46.210938 -14.878906 45.519531 -14.609375 44.75 -14.609375 L 14.765625 -14.609375 C 14.140625 -14.609375 13.75 -14.296875 13.59375 -13.671875 C 13.5 -13.003906 13.785156 -12.671875 14.453125 -12.671875 L 44.4375 -12.671875 C 45.15625 -12.671875 45.734375 -12.410156 46.171875 -11.890625 C 46.609375 -11.378906 46.773438 -10.738281 46.671875 -9.96875 L 45.359375 -2.703125 C 45.203125 -1.929688 44.816406 -1.285156 44.203125 -0.765625 C 43.585938 -0.253906 42.921875 0 42.203125 0 L 3.859375 0 C 2.421875 0 1.265625 -0.523438 0.390625 -1.578125 C -0.484375 -2.640625 -0.796875 -3.890625 -0.546875 -5.328125 L 5.015625 -36.625 C 5.273438 -38.070312 6.007812 -39.320312 7.21875 -40.375 C 8.4375 -41.4375 9.789062 -41.96875 11.28125 -41.96875 Z M 49.609375 -41.96875 "/></g></g></g><g fill="#a08cfd" fill-opacity="1"><g transform="translate(591.691832, 166.072705)"><g><path d="M 44.75 -41.96875 C 45.78125 -41.96875 46.472656 -41.539062 46.828125 -40.6875 C 47.191406 -39.832031 47.085938 -38.96875 46.515625 -38.09375 L 35.3125 -20.9375 L 40.5 -3.859375 C 40.75 -2.929688 40.539062 -2.054688 39.875 -1.234375 C 39.207031 -0.410156 38.382812 0 37.40625 0 L 30.6875 0 C 29.550781 0 28.828125 -0.515625 28.515625 -1.546875 L 25.046875 -13.140625 C 24.734375 -14.117188 24.007812 -14.609375 22.875 -14.609375 L 19.25 -14.609375 C 18.113281 -14.609375 17.207031 -14.117188 16.53125 -13.140625 L 8.96875 -1.546875 C 8.289062 -0.515625 7.390625 0 6.265625 0 L -0.46875 0 C -1.445312 0 -2.128906 -0.410156 -2.515625 -1.234375 C -2.898438 -2.054688 -2.78125 -2.929688 -2.15625 -3.859375 L 9.046875 -20.9375 L 3.859375 -38.09375 C 3.609375 -38.96875 3.816406 -39.832031 4.484375 -40.6875 C 5.148438 -41.539062 5.972656 -41.96875 6.953125 -41.96875 L 13.671875 -41.96875 C 14.804688 -41.96875 15.53125 -41.453125 15.84375 -40.421875 L 19.3125 -28.828125 C 19.625 -27.796875 20.347656 -27.28125 21.484375 -27.28125 L 25.109375 -27.28125 C 26.242188 -27.28125 27.125 -27.796875 27.75 -28.828125 L 35.390625 -40.421875 C 36.015625 -41.453125 36.890625 -41.96875 38.015625 -41.96875 Z M 44.75 -41.96875 "/></g></g></g><g fill="#a08cfd" fill-opacity="1"><g transform="translate(642.696079, 166.072705)"><g/></g></g></svg>